<svg width="111" height="162" viewBox="0 0 111 162" fill="none" xmlns="http://www.w3.org/2000/svg">
<rect x="46.7393" y="140.51" width="21.0872" height="21.0872" rx="5" fill="#F25C05"/>
<path fill-rule="evenodd" clip-rule="evenodd" d="M55.6891 0C24.5085 0 0 26.3501 0 57.9183C0 66.6022 2.93898 75.6542 6.85743 83.8799C10.8367 92.2333 16.17 100.447 21.744 107.654C27.3129 114.854 33.3146 121.298 38.7761 126.044C41.4939 128.406 44.2591 130.507 46.9164 132.073C49.2404 133.442 52.783 135.204 56.7155 135.204C60.1966 135.204 63.1743 133.659 64.8139 132.707C66.8092 131.549 68.8554 130.028 70.8413 128.364C74.8421 125.011 79.3409 120.45 83.7908 115.239L89.9601 108.015L75.5117 95.676L69.3424 102.9C65.3755 107.545 61.6219 111.301 58.6378 113.801C57.7398 114.554 56.9757 115.138 56.3514 115.577C55.0456 114.783 53.3152 113.507 51.2397 111.704C46.886 107.92 41.7252 102.432 36.7733 96.0297C31.8265 89.6337 27.2805 82.5728 24.0106 75.7087C20.6799 68.7169 19 62.6086 19 57.9183C19 35.9896 35.8359 19 55.6891 19C69.2909 19 81.3947 26.8958 87.7494 39H109.03L105.025 31.0495C95.8132 12.7607 77.2972 0 55.6891 0ZM54.7669 116.536C54.7679 116.533 54.8117 116.511 54.8951 116.481C54.8075 116.523 54.7658 116.539 54.7669 116.536Z" fill="#008CA4"/>
<path d="M110.65 98.0158V67.8263H69.41C61.6219 67.8263 57.2832 72.6312 57.2832 82.2589H95.7624V135.126C100.661 135.126 104.375 134.07 106.888 131.949C109.418 129.838 110.674 126.796 110.674 122.805V98.0158H110.642H110.65Z" fill="#FEF8E6"/>
</svg>
