<svg width="25" height="34" viewBox="0 0 25 34" fill="none" xmlns="http://www.w3.org/2000/svg">
<rect x="10.9229" y="29.2164" width="4.11403" height="4.11403" rx="1" fill="#147E95"/>
<path fill-rule="evenodd" clip-rule="evenodd" d="M12.6685 1.90698C6.64697 1.90698 1.90723 6.99684 1.90723 13.1032C1.90723 14.7757 2.47376 16.5256 3.23503 18.1237C4.00751 19.7453 5.04374 21.3415 6.12778 22.7431C7.2109 24.1435 8.37721 25.3954 9.4367 26.3162C9.96407 26.7746 10.4983 27.1801 11.0095 27.4813C11.4593 27.7464 12.1304 28.0779 12.8688 28.0779C13.5191 28.0779 14.08 27.7886 14.3968 27.6048C14.7792 27.3829 15.1734 27.0901 15.5582 26.7676C16.3333 26.1182 17.2069 25.2326 18.0724 24.219L19.2089 22.8883L16.5473 20.6154L15.4109 21.9461C14.6343 22.8554 13.8979 23.5925 13.3102 24.085C13.1066 24.2557 12.9365 24.3837 12.8019 24.475L12.7865 24.466C12.5202 24.3091 12.1627 24.0483 11.7326 23.6745C10.8772 22.9311 9.8658 21.8553 8.89634 20.6018C7.92781 19.3496 7.03662 17.9658 6.39482 16.6185C5.74183 15.2477 5.40723 14.04 5.40723 13.1032C5.40723 8.77254 8.7336 5.40698 12.6685 5.40698C15.3819 5.40698 17.7908 6.99266 19.04 9.41231H22.9593L22.2015 7.90771C20.4202 4.37149 16.8418 1.90698 12.6685 1.90698ZM12.5321 24.6328C12.5323 24.6324 12.5393 24.6291 12.5528 24.6243C12.5387 24.6309 12.532 24.6333 12.5321 24.6328Z" fill="#F25C05"/>
<path d="M23.3912 20.926V15.0361H15.3454C13.826 15.0361 12.9795 15.9735 12.9795 17.8519H20.4866V28.166C21.4423 28.166 22.1669 27.96 22.6572 27.5463C23.1507 27.1343 23.3959 26.5408 23.3959 25.7622V20.926H23.3896H23.3912Z" fill="#FEF8E6"/>
</svg>
