<svg width="70" height="90" viewBox="0 0 70 90" fill="none" xmlns="http://www.w3.org/2000/svg">
<g clip-path="url(#clip0_58_2705)">
<path d="M32.9403 56.2C30.1703 50.05 35.6803 42.54 42.6003 43.17C43.5703 42.43 44.6603 41.61 45.8803 40.69C47.2903 39.62 48.5103 38.69 49.5503 37.91C50.7503 37 51.9703 36.4 53.2003 36.12C53.4103 36.07 53.6203 36.04 53.8303 36.02C56.3903 18.48 44.2403 -1.51999 24.6403 1.93001C24.3503 2.02001 24.0703 2.10001 23.7803 2.19001C8.66031 7.04001 2.81031 17.72 0.820312 27.52C-0.589688 34.45 -0.139688 41.55 1.91031 48.23C7.28031 37.81 15.1803 28.69 26.2203 23.81C27.1303 23.16 28.1203 22.54 29.1903 21.93C30.5603 21.15 32.0403 20.45 33.6303 19.83C35.2203 19.21 36.9103 18.64 38.6903 18.14C40.0003 17.79 41.0703 17.88 41.9003 18.39C42.7303 18.9 43.2603 19.6 43.4903 20.5C43.7203 21.39 43.6103 22.26 43.1403 23.1C42.6703 23.94 41.8203 24.54 40.5803 24.89C38.3803 25.45 36.3803 26.16 34.5703 27.01C32.7603 27.86 31.1503 28.82 29.7403 29.89C27.4903 31.66 25.7903 33.64 24.6203 35.82C23.4503 38.01 22.8203 40.3 22.7003 42.69C22.5903 45.08 22.9503 47.5 23.7803 49.92C24.6203 52.35 25.8903 54.66 27.6103 56.87C29.3603 59.12 31.3003 60.97 33.4203 62.42C35.5403 63.87 37.7603 64.88 40.0903 65.46C42.4203 66.04 44.7803 66.06 47.1803 65.55C47.2003 65.55 47.2203 65.55 47.2403 65.54C41.1003 65.25 35.2103 61.62 32.9203 56.21L32.9403 56.2Z" fill="#F25C05"/>
<path d="M60.9599 52.67C60.5599 51.48 59.8999 50.29 58.9699 49.1C58.0499 47.91 57.0599 46.65 56.0099 45.3C55.3999 44.52 54.9099 44 54.5399 43.73C54.1699 43.46 53.8299 43.44 53.5399 43.66C52.0099 44.82 50.6199 45.88 49.3699 46.82C48.1299 47.76 47.1499 48.5 46.4499 49.04C45.4099 49.83 44.4099 50.15 43.4399 50C42.4699 49.86 41.6999 49.42 41.1299 48.68C40.5599 47.94 40.3199 47.1 40.4299 46.13C40.5399 45.17 41.1099 44.3 42.1499 43.51C42.2999 43.4 42.4499 43.28 42.5999 43.17C30.1599 41.8 28.2299 50.0056 30.9999 56.1556C33.2899 61.5656 41.1199 65.24 47.2599 65.53C49.6399 65.01 51.9399 63.9 54.1599 62.22C56.1899 60.68 57.7399 59.3 58.7899 58.07C59.8499 56.85 60.5299 55.77 60.8399 54.86C61.1499 53.94 61.1899 53.21 60.9599 52.67Z" fill="#F25C05"/>
<path d="M67.7997 20.2799C67.7997 20.2799 55.5596 -7.42005 24.6396 1.92995C44.2396 -1.52005 56.3897 18.4899 53.8297 36.0199C54.8597 35.9199 55.9196 36.1399 57.0096 36.6899C58.3196 37.3599 59.6897 38.6099 61.1297 40.4499C62.3396 41.9999 63.3496 43.2999 64.1696 44.3399C64.9796 45.3799 65.6596 46.3599 66.2096 47.2799C66.5496 47.8599 66.8596 48.4899 67.1497 49.1399C67.3797 48.6799 67.5996 48.2299 67.8096 47.7899C73.6796 35.4899 67.8096 20.2899 67.8096 20.2899L67.7997 20.2799Z" fill="#FFCA3A"/>
<path d="M1.8999 48.23C1.9199 48.29 1.9399 48.36 1.9599 48.42C6.0899 61.68 16.6099 73.9401 25.5399 84.4001C27.2899 86.4501 29.1799 88.54 31.7199 89.47C36.7799 91.34 42.3499 87.91 45.6599 83.7C48.9599 79.49 51.0499 74.35 54.8799 70.59C43.3799 74.96 29.1799 70.98 21.7199 61.3C13.1499 50.16 14.2199 33.0601 25.4499 24.3601C25.6999 24.1701 25.9599 23.98 26.2199 23.8C15.1799 28.69 7.2699 37.81 1.8999 48.23Z" fill="#090452"/>
<path d="M48.399 64.5395C47.906 64.6945 47.094 64.6945 46.601 64.5395C42.396 63.2603 33 57.9237 33 48.8788C33 44.8861 36.0485 41.6558 40.5 41.6558C43.139 41.6558 46.0355 42.7928 47.5 44.5501C48.9645 42.7928 51.3135 41.6558 53.938 41.6558C58.3895 41.6558 62 44.8861 62 48.8788C62 57.9237 52.604 63.2603 48.399 64.5395Z" fill="#E8E6E8" stroke="#E8E6E8" stroke-linecap="round" stroke-linejoin="round"/>
</g>
<defs>
<clipPath id="clip0_58_2705">
<rect width="70" height="90" fill="white"/>
</clipPath>
</defs>
</svg>
