<svg width="587" height="162" viewBox="0 0 587 162" fill="none" xmlns="http://www.w3.org/2000/svg">
<path d="M120.944 71.779C120.944 70.1459 121.541 68.7954 122.735 67.7276C123.928 66.5969 125.435 66.0316 127.257 66.0316H152.414C159.197 66.0316 164.442 67.8218 168.148 71.4021C171.917 74.9825 173.801 80.0075 173.801 86.4772C173.801 90.1832 173.048 93.3239 171.54 95.8992C170.033 98.4117 167.74 100.422 164.662 101.929V102.212C170.19 104.662 172.953 109.31 172.953 116.156V123.505C172.953 126.521 171.886 128.845 169.75 130.478C167.614 132.048 164.474 132.833 160.328 132.833V116.722C160.328 113.393 159.669 110.943 158.349 109.373C157.03 107.802 155.02 107.017 152.319 107.017H133.381V123.505C133.381 126.583 132.313 128.907 130.178 130.478C128.105 132.048 125.027 132.833 120.944 132.833V71.779ZM151.754 96.2761C154.769 96.2761 157.093 95.4281 158.726 93.7321C160.359 91.9734 161.176 89.5237 161.176 86.383C161.176 79.9761 158.035 76.7726 151.754 76.7726H133.381V96.2761H151.754Z" fill="#FEF8E6"/>
<path d="M190.662 132.833C187.961 132.519 185.825 131.577 184.255 130.007C182.747 128.436 181.993 126.458 181.993 124.071C181.993 122.249 182.433 120.365 183.312 118.418L204.889 69.3293C206.082 66.5655 208.155 65.1837 211.107 65.1837C213.997 65.1837 216.038 66.5655 217.231 69.3293L238.808 118.418C239.687 120.49 240.127 122.375 240.127 124.071C240.127 126.458 239.342 128.436 237.771 130.007C236.264 131.577 234.128 132.519 231.364 132.833L223.45 114.932H198.67L190.662 132.833ZM219.587 104.19L209.223 78.3744L208.092 78.8455L210.353 84.6871L202.439 104.19H219.587Z" fill="#FEF8E6"/>
<path d="M265.694 132.833C262.679 132.833 260.638 131.451 259.57 128.688L235.544 66.4085C236.172 66.0944 237.02 65.8118 238.088 65.5605C239.156 65.3093 240.098 65.1837 240.914 65.1837C245.877 65.1837 249.08 67.1937 250.525 71.2137L265.035 111.822L262.773 117.852L263.81 118.229L280.769 71.2137C282.277 67.1937 285.48 65.1837 290.38 65.1837C291.196 65.1837 292.138 65.3093 293.206 65.5605C294.274 65.8118 295.153 66.0944 295.844 66.4085L271.818 128.688C271.316 130.007 270.531 131.043 269.463 131.797C268.458 132.488 267.202 132.833 265.694 132.833Z" fill="#FEF8E6"/>
<path d="M304.875 71.779C304.875 70.2087 305.471 68.8582 306.665 67.7276C307.921 66.5969 309.429 66.0316 311.187 66.0316H353.209C353.209 69.8004 352.55 72.5642 351.231 74.3229C349.974 76.0189 347.901 76.8669 345.012 76.8669H317.5V93.261H342.562C342.562 97.0298 341.903 99.7936 340.584 101.552C339.328 103.248 337.255 104.096 334.365 104.096H317.5V121.15H346.991C349.817 121.15 351.859 122.029 353.115 123.788C354.434 125.484 355.094 128.216 355.094 131.985H311.187C309.429 131.985 307.921 131.451 306.665 130.383C305.471 129.253 304.875 127.871 304.875 126.238V71.779Z" fill="#FEF8E6"/>
<path d="M370.817 131.985C368.996 131.985 367.425 131.326 366.106 130.007C364.85 128.688 364.222 127.117 364.222 125.296V74.5114C364.222 71.3707 365.258 69.0467 367.331 67.5391C369.404 65.9688 372.576 65.1837 376.847 65.1837V121.056H402.286C405.239 121.056 407.469 121.998 408.976 123.882C410.484 125.704 411.237 128.405 411.237 131.985H370.817Z" fill="#FEF8E6"/>
<path d="M426.024 131.985C424.202 131.985 422.632 131.326 421.313 130.007C420.057 128.688 419.428 127.117 419.428 125.296V74.5114C419.428 71.3707 420.465 69.0467 422.538 67.5391C424.611 65.9688 427.783 65.1837 432.054 65.1837V121.056H457.493C460.445 121.056 462.675 121.998 464.183 123.882C465.69 125.704 466.444 128.405 466.444 131.985H426.024Z" fill="#FEF8E6"/>
<path d="M474.635 71.779C474.635 70.2087 475.232 68.8582 476.425 67.7276C477.682 66.5969 479.189 66.0316 480.948 66.0316H522.97C522.97 69.8004 522.31 72.5642 520.991 74.3229C519.735 76.0189 517.662 76.8669 514.773 76.8669H487.261V93.261H512.323C512.323 97.0298 511.663 99.7936 510.344 101.552C509.088 103.248 507.015 104.096 504.126 104.096H487.261V121.15H516.751C519.578 121.15 521.619 122.029 522.876 123.788C524.195 125.484 524.854 128.216 524.854 131.985H480.948C479.189 131.985 477.682 131.451 476.425 130.383C475.232 129.253 474.635 127.871 474.635 126.238V71.779Z" fill="#FEF8E6"/>
<path d="M533.982 71.779C533.982 70.1459 534.579 68.7954 535.773 67.7276C536.966 66.5969 538.474 66.0316 540.295 66.0316H565.452C572.235 66.0316 577.48 67.8218 581.186 71.4021C584.955 74.9825 586.839 80.0075 586.839 86.4772C586.839 90.1832 586.086 93.3239 584.578 95.8992C583.071 98.4117 580.778 100.422 577.7 101.929V102.212C583.228 104.662 585.992 109.31 585.992 116.156V123.505C585.992 126.521 584.924 128.845 582.788 130.478C580.652 132.048 577.512 132.833 573.366 132.833V116.722C573.366 113.393 572.707 110.943 571.387 109.373C570.068 107.802 568.058 107.017 565.357 107.017H546.419V123.505C546.419 126.583 545.351 128.907 543.216 130.478C541.143 132.048 538.065 132.833 533.982 132.833V71.779ZM564.792 96.2761C567.807 96.2761 570.131 95.4281 571.764 93.7321C573.397 91.9734 574.214 89.5237 574.214 86.383C574.214 79.9761 571.073 76.7726 564.792 76.7726H546.419V96.2761H564.792Z" fill="#FEF8E6"/>
<rect x="46.7393" y="140.51" width="21.0872" height="21.0872" rx="5" fill="#147E95"/>
<path fill-rule="evenodd" clip-rule="evenodd" d="M55.6891 0C24.5085 0 0 26.3501 0 57.9183C0 66.6022 2.93898 75.6542 6.85743 83.8799C10.8367 92.2333 16.17 100.447 21.744 107.654C27.3129 114.854 33.3146 121.298 38.7761 126.044C41.4939 128.406 44.2591 130.507 46.9164 132.073C49.2404 133.442 52.783 135.204 56.7155 135.204C60.1966 135.204 63.1743 133.659 64.8139 132.707C66.8092 131.549 68.8554 130.028 70.8413 128.364C74.8421 125.011 79.3409 120.45 83.7908 115.239L89.9601 108.015L75.5117 95.676L69.3424 102.9C65.3755 107.545 61.6219 111.301 58.6378 113.801C57.7398 114.554 56.9757 115.138 56.3514 115.577C55.0456 114.783 53.3152 113.507 51.2397 111.704C46.886 107.92 41.7252 102.432 36.7733 96.0297C31.8265 89.6337 27.2805 82.5728 24.0106 75.7087C20.6799 68.7169 19 62.6086 19 57.9183C19 35.9896 35.8359 19 55.6891 19C69.2909 19 81.3947 26.8958 87.7494 39H109.03L105.025 31.0495C95.8132 12.7607 77.2972 0 55.6891 0ZM54.7669 116.536C54.7679 116.533 54.8117 116.511 54.8951 116.481C54.8075 116.523 54.7658 116.539 54.7669 116.536Z" fill="#F25C05"/>
<path d="M110.65 98.0158V67.8263H69.41C61.6219 67.8263 57.2832 72.6312 57.2832 82.2589H95.7624V135.126C100.661 135.126 104.375 134.07 106.888 131.949C109.418 129.838 110.674 126.796 110.674 122.805V98.0158H110.642H110.65Z" fill="#FEF8E6"/>
</svg>
