<svg width="587" height="162" viewBox="0 0 587 162" fill="none" xmlns="http://www.w3.org/2000/svg">
<path d="M121 73.5954C121 71.9622 121.597 70.6117 122.79 69.5439C123.984 68.4133 125.491 67.848 127.313 67.848H152.469C159.253 67.848 164.498 69.6381 168.204 73.2185C171.973 76.7988 173.857 81.8239 173.857 88.2936C173.857 91.9996 173.103 95.1402 171.596 97.7155C170.088 100.228 167.796 102.238 164.718 103.746V104.028C170.245 106.478 173.009 111.126 173.009 117.973V125.322C173.009 128.337 171.941 130.661 169.806 132.294C167.67 133.864 164.529 134.65 160.384 134.65V118.538C160.384 115.209 159.724 112.759 158.405 111.189C157.086 109.619 155.076 108.833 152.375 108.833H133.437V125.322C133.437 128.4 132.369 130.724 130.234 132.294C128.161 133.864 125.083 134.65 121 134.65V73.5954ZM151.81 98.0924C154.825 98.0924 157.149 97.2444 158.782 95.5485C160.415 93.7897 161.232 91.34 161.232 88.1994C161.232 81.7924 158.091 78.589 151.81 78.589H133.437V98.0924H151.81Z" fill="#FEF8E6"/>
<path d="M190.717 134.65C188.016 134.335 185.881 133.393 184.31 131.823C182.803 130.253 182.049 128.274 182.049 125.887C182.049 124.066 182.489 122.181 183.368 120.234L204.944 71.1457C206.138 68.3819 208.211 67 211.163 67C214.052 67 216.094 68.3819 217.287 71.1457L238.863 120.234C239.743 122.307 240.182 124.191 240.182 125.887C240.182 128.274 239.397 130.253 237.827 131.823C236.319 133.393 234.184 134.335 231.42 134.65L223.506 116.748H198.726L190.717 134.65ZM219.643 106.007L209.278 80.1907L208.148 80.6618L210.409 86.5034L202.495 106.007H219.643Z" fill="#FEF8E6"/>
<path d="M265.75 134.65C262.735 134.65 260.693 133.268 259.625 130.504L235.6 68.2249C236.228 67.9108 237.076 67.6281 238.143 67.3769C239.211 67.1256 240.153 67 240.97 67C245.932 67 249.136 69.01 250.58 73.03L265.09 113.639L262.829 119.669L263.865 120.046L280.825 73.03C282.332 69.01 285.536 67 290.435 67C291.252 67 292.194 67.1256 293.262 67.3769C294.33 67.6281 295.209 67.9108 295.9 68.2249L271.874 130.504C271.371 131.823 270.586 132.859 269.518 133.613C268.513 134.304 267.257 134.65 265.75 134.65Z" fill="#FEF8E6"/>
<path d="M304.93 73.5954C304.93 72.025 305.527 70.6746 306.72 69.5439C307.977 68.4133 309.484 67.848 311.243 67.848H353.265C353.265 71.6168 352.605 74.3805 351.286 76.1393C350.03 77.8352 347.957 78.6832 345.068 78.6832H317.556V95.0774H342.618C342.618 98.8462 341.959 101.61 340.639 103.369C339.383 105.065 337.31 105.913 334.421 105.913H317.556V122.966H347.046C349.873 122.966 351.914 123.846 353.171 125.604C354.49 127.3 355.149 130.033 355.149 133.802H311.243C309.484 133.802 307.977 133.268 306.72 132.2C305.527 131.069 304.93 129.687 304.93 128.054V73.5954Z" fill="#FEF8E6"/>
<path d="M370.873 133.802C369.051 133.802 367.481 133.142 366.162 131.823C364.906 130.504 364.277 128.934 364.277 127.112V76.3277C364.277 73.1871 365.314 70.863 367.387 69.3555C369.46 67.7852 372.632 67 376.903 67V122.872H402.342C405.294 122.872 407.524 123.814 409.032 125.699C410.539 127.52 411.293 130.221 411.293 133.802H370.873Z" fill="#FEF8E6"/>
<path d="M426.08 133.802C424.258 133.802 422.688 133.142 421.369 131.823C420.112 130.504 419.484 128.934 419.484 127.112V76.3277C419.484 73.1871 420.521 70.863 422.593 69.3555C424.666 67.7852 427.838 67 432.11 67V122.872H457.549C460.501 122.872 462.731 123.814 464.238 125.699C465.746 127.52 466.5 130.221 466.5 133.802H426.08Z" fill="#FEF8E6"/>
<path d="M474.691 73.5954C474.691 72.025 475.288 70.6746 476.481 69.5439C477.737 68.4133 479.245 67.848 481.004 67.848H523.025C523.025 71.6168 522.366 74.3805 521.047 76.1393C519.791 77.8352 517.718 78.6832 514.828 78.6832H487.316V95.0774H512.379C512.379 98.8462 511.719 101.61 510.4 103.369C509.144 105.065 507.071 105.913 504.182 105.913H487.316V122.966H516.807C519.633 122.966 521.675 123.846 522.931 125.604C524.25 127.3 524.91 130.033 524.91 133.802H481.004C479.245 133.802 477.737 133.268 476.481 132.2C475.288 131.069 474.691 129.687 474.691 128.054V73.5954Z" fill="#FEF8E6"/>
<path d="M534.038 73.5954C534.038 71.9622 534.635 70.6117 535.828 69.5439C537.022 68.4133 538.529 67.848 540.351 67.848H565.507C572.291 67.848 577.536 69.6381 581.242 73.2185C585.011 76.7988 586.895 81.8239 586.895 88.2936C586.895 91.9996 586.141 95.1402 584.634 97.7155C583.126 100.228 580.834 102.238 577.756 103.746V104.028C583.283 106.478 586.047 111.126 586.047 117.973V125.322C586.047 128.337 584.979 130.661 582.844 132.294C580.708 133.864 577.567 134.65 573.422 134.65V118.538C573.422 115.209 572.762 112.759 571.443 111.189C570.124 109.619 568.114 108.833 565.413 108.833H546.475V125.322C546.475 128.4 545.407 130.724 543.272 132.294C541.199 133.864 538.121 134.65 534.038 134.65V73.5954ZM564.848 98.0924C567.863 98.0924 570.187 97.2444 571.82 95.5485C573.453 93.7897 574.27 91.34 574.27 88.1994C574.27 81.7924 571.129 78.589 564.848 78.589H546.475V98.0924H564.848Z" fill="#FEF8E6"/>
<rect x="46.7393" y="140.51" width="21.0872" height="21.0872" rx="5" fill="#F25C05"/>
<path fill-rule="evenodd" clip-rule="evenodd" d="M55.6891 0C24.5085 0 0 26.3501 0 57.9183C0 66.6022 2.93898 75.6542 6.85743 83.8799C10.8367 92.2333 16.17 100.447 21.744 107.654C27.3129 114.854 33.3146 121.298 38.7761 126.044C41.4939 128.406 44.2591 130.507 46.9164 132.073C49.2404 133.442 52.783 135.204 56.7155 135.204C60.1966 135.204 63.1743 133.659 64.8139 132.707C66.8092 131.549 68.8554 130.028 70.8413 128.364C74.8421 125.011 79.3409 120.45 83.7908 115.239L89.9601 108.015L75.5117 95.676L69.3424 102.9C65.3755 107.545 61.6219 111.301 58.6378 113.801C57.7398 114.554 56.9757 115.138 56.3514 115.577C55.0456 114.783 53.3152 113.507 51.2397 111.704C46.886 107.92 41.7252 102.432 36.7733 96.0297C31.8265 89.6337 27.2805 82.5728 24.0106 75.7087C20.6799 68.7169 19 62.6086 19 57.9183C19 35.9896 35.8359 19 55.6891 19C69.2909 19 81.3947 26.8958 87.7494 39H109.03L105.025 31.0495C95.8132 12.7607 77.2972 0 55.6891 0ZM54.7669 116.536C54.7679 116.533 54.8117 116.511 54.8951 116.481C54.8075 116.523 54.7658 116.539 54.7669 116.536Z" fill="#147E95"/>
<path d="M110.65 98.0158V67.8263H69.41C61.6219 67.8263 57.2832 72.6312 57.2832 82.2589H95.7624V135.126C100.661 135.126 104.375 134.07 106.888 131.949C109.418 129.838 110.674 126.796 110.674 122.805V98.0158H110.642H110.65Z" fill="#FEF8E6"/>
</svg>
