<svg width="592" height="125" viewBox="0 0 592 125" fill="none" xmlns="http://www.w3.org/2000/svg">
<g clip-path="url(#clip0_58_2596)">
<path d="M126.882 30.1692C125.021 29.3136 123.05 28.7063 120.955 28.3199C118.861 27.9472 116.779 27.754 114.726 27.754C113.403 27.754 112.314 28.0577 111.487 28.6787C110.66 29.2998 110.109 30.0588 109.847 30.9835C109.585 31.9082 109.585 32.8328 109.847 33.7437C110.109 34.6684 110.66 35.4274 111.487 36.0485C112.314 36.6695 113.403 36.9732 114.726 36.9732H134.586C133.856 35.6621 132.946 34.5028 131.857 33.4953C130.397 32.129 128.729 31.0249 126.868 30.1692H126.882Z" fill="#E8E6E8"/>
<path d="M120.252 36.9732H114.726C116.324 36.9732 117.882 37.0146 119.412 37.0698C120.941 37.1388 122.32 37.4148 123.546 37.884C124.773 38.3671 125.752 39.1675 126.482 40.2854C127.213 41.4171 127.585 43.0318 127.585 45.1434V93.254C127.585 94.9653 128.039 96.2626 128.935 97.1459C129.831 98.0292 130.879 98.4708 132.078 98.4708C133.277 98.4708 134.324 98.0292 135.22 97.1459C136.116 96.2626 136.571 94.9653 136.571 93.254V45.1434C136.571 42.5488 136.157 40.2992 135.33 38.3809C135.11 37.884 134.876 37.401 134.614 36.9456H120.28L120.252 36.9732Z" fill="#E8E6E8"/>
<path d="M149.402 27.754H114.726C116.779 27.754 118.86 27.9472 120.955 28.3199C123.05 28.6925 125.021 29.3136 126.882 30.1692C128.742 31.0249 130.396 32.129 131.871 33.4953C132.946 34.5028 133.856 35.6621 134.6 36.9732H149.416C151.139 36.9732 152.421 36.5177 153.248 35.593C154.075 34.6684 154.488 33.5919 154.488 32.3636C154.488 31.1353 154.075 30.0588 153.248 29.1341C152.421 28.2095 151.139 27.754 149.416 27.754H149.402Z" fill="#E8E6E8"/>
<path d="M192.693 63.3332C194.127 64.2441 195.367 65.2792 196.456 66.4109C199.461 64.6719 201.914 62.3672 203.761 59.4413C205.718 56.3361 206.696 52.734 206.696 48.6351C206.696 45.6264 206.186 42.8662 205.153 40.3406C204.119 37.815 202.644 35.6207 200.715 33.7437C198.785 31.8668 196.484 30.4038 193.782 29.3412C191.095 28.2785 188.09 27.754 184.768 27.754H175.507C173.246 27.754 171.427 28.0991 170.021 28.7753C168.629 29.4516 167.54 30.4866 166.782 31.853C166.024 33.2193 165.5 34.972 165.239 37.125C164.977 39.2779 164.839 41.7759 164.839 44.6466V93.2678C164.839 94.9791 165.294 96.2764 166.19 97.1597C167.085 98.043 168.133 98.4846 169.332 98.4846C170.531 98.4846 171.579 98.043 172.474 97.1597C173.37 96.2764 173.825 94.9791 173.825 93.2678V44.6466C173.825 43.4183 173.811 42.328 173.77 41.3757C173.742 40.4234 173.77 39.623 173.866 38.9743C173.963 38.3257 174.211 37.8288 174.611 37.4838C175.01 37.1388 175.644 36.9732 176.499 36.9732H184.768C187.428 36.9732 189.716 37.4562 191.646 38.4085C193.575 39.3607 195.064 40.7133 196.125 42.4522C197.186 44.1911 197.724 46.2613 197.724 48.6489C197.724 51.0365 197.228 53.1066 196.235 54.8456C195.243 56.5845 193.865 57.9232 192.101 58.8341C190.337 59.7588 188.297 60.2142 185.967 60.2142H179.793C182.646 60.2142 185.127 60.4902 187.222 61.0285C189.317 61.5805 191.136 62.3396 192.707 63.3332H192.693Z" fill="#E8E6E8"/>
<path d="M181.888 69.4194H184.975C188.958 69.4194 192.597 68.5362 195.891 66.7558C196.097 66.6454 196.263 66.5074 196.47 66.397C195.381 65.2653 194.14 64.2302 192.707 63.3194C191.149 62.3257 189.316 61.5666 187.221 61.0146C185.127 60.4625 182.659 60.2003 179.793 60.2003C178.456 60.2003 177.381 60.5039 176.554 61.125C175.727 61.7322 175.176 62.5051 174.914 63.4298C174.652 64.3544 174.652 65.2791 174.914 66.19C175.176 67.1147 175.727 67.8737 176.554 68.4948C177.381 69.1158 178.456 69.4194 179.793 69.4194H181.888Z" fill="#E8E6E8"/>
<path d="M209.246 85.4978C208.213 83.7865 207.206 82.1027 206.214 80.4328C205.222 78.7629 204.202 77.1205 203.168 75.5196C202.134 73.9187 201.087 72.3316 200.026 70.7582C199.033 69.3229 197.945 67.9842 196.787 66.7145C196.69 66.6041 196.566 66.5213 196.47 66.4109C196.277 66.5213 196.098 66.6593 195.891 66.7697C192.597 68.5501 188.958 69.4333 184.975 69.4333H179.793C182.453 69.4333 184.479 69.6403 185.871 70.0406C187.263 70.4408 188.448 71.1309 189.413 72.0831C190.378 73.0354 191.453 74.3741 192.652 76.0717C193.713 77.507 194.733 79.0113 195.684 80.5708C196.649 82.1441 197.628 83.7451 198.62 85.3874C199.612 87.0297 200.632 88.7135 201.666 90.4524C202.7 92.1913 203.775 93.9579 204.905 95.7244C205.828 97.2287 206.917 98.0844 208.144 98.2776C209.37 98.4846 210.473 98.2638 211.438 97.6152C212.402 96.9665 213.05 96.028 213.381 94.7997C213.712 93.5714 213.409 92.2327 212.485 90.8112C211.355 88.9619 210.28 87.1953 209.246 85.484V85.4978Z" fill="#E8E6E8"/>
<path d="M237.693 70.4408C235.24 70.4408 233.131 70.841 231.367 71.6139C231.091 71.7381 230.829 71.8899 230.554 72.0279C230.76 72.6076 230.981 73.1734 231.257 73.7117C232.221 75.561 233.655 77.0101 235.543 78.059C237.431 79.1217 239.816 79.6461 242.669 79.6461H255.031C256.355 79.6461 257.443 79.3425 258.27 78.7215C259.097 78.1142 259.649 77.3413 259.91 76.4167C260.172 75.492 260.172 74.5673 259.91 73.6565C259.649 72.7318 259.097 71.9727 258.27 71.3517C257.443 70.7306 256.355 70.427 255.031 70.427H237.693V70.4408Z" fill="#E8E6E8"/>
<path d="M231.271 73.7255C230.995 73.1872 230.761 72.6214 230.568 72.0417C229.176 72.787 227.99 73.7669 227.039 74.9952C225.909 76.4581 224.986 78.2936 224.242 80.4742C223.773 81.8405 223.332 83.124 222.891 84.3109C222.464 85.5116 222.05 86.6985 221.65 87.8992C221.251 89.0999 220.823 90.3696 220.355 91.7359C219.762 93.3782 219.735 94.7583 220.3 95.8762C220.865 97.0079 221.706 97.767 222.836 98.181C223.966 98.595 225.096 98.5398 226.226 98.0292C227.356 97.5186 228.183 96.4421 228.721 94.7997C229.189 93.4334 229.63 92.1499 230.072 90.963C230.499 89.7624 230.912 88.5755 231.312 87.3748C231.712 86.1879 232.139 84.9044 232.607 83.5381C233.007 82.5858 233.366 81.8129 233.71 81.2333C234.041 80.6536 234.509 80.2396 235.102 80.005C235.695 79.7704 236.563 79.6461 237.693 79.6461H242.683C239.83 79.6461 237.445 79.1217 235.557 78.059C233.669 76.9963 232.235 75.5472 231.271 73.7117V73.7255Z" fill="#E8E6E8"/>
<path d="M275.209 87.4851C274.713 86.0222 274.231 84.6007 273.762 83.2344C273.293 81.868 272.866 80.6812 272.466 79.6461C271.667 77.3965 270.799 74.8571 269.875 72.0141C268.938 69.1848 267.96 66.2038 266.94 63.0572C265.906 59.9243 264.859 56.7225 263.797 53.4792C262.736 50.2359 261.675 47.0479 260.614 43.9012C259.552 40.7684 258.519 37.7874 257.526 34.9995C256.465 32.0599 255.114 29.8655 253.488 28.4026C251.862 26.9397 250.153 26.2083 248.361 26.2083C246.569 26.2083 244.888 26.9397 243.33 28.4026C241.773 29.8655 240.491 32.0323 239.499 34.9029C238.768 37.2215 238.038 39.4573 237.307 41.6103C236.577 43.7632 235.86 45.8472 235.157 47.8484C234.454 49.8633 233.765 51.8231 233.062 53.7414C232.359 55.646 231.712 57.5229 231.119 59.3723C230.196 62.1739 229.741 64.7961 229.768 67.2527C229.796 69.0054 230.058 70.5788 230.554 72.0141C230.816 71.8761 231.078 71.7242 231.367 71.6C233.131 70.8134 235.24 70.4269 237.693 70.4269H242.682C241.483 70.4269 240.574 70.2475 239.94 69.8611C239.306 69.4885 238.92 68.9364 238.796 68.2188C238.658 67.5011 238.672 66.6454 238.851 65.6656C239.016 64.6719 239.306 63.5954 239.692 62.4361C240.284 60.5868 240.918 58.7236 241.58 56.8053C242.241 54.9007 242.903 52.9824 243.578 51.0778C244.24 49.1733 244.901 47.2549 245.577 45.3504C246.238 43.4458 246.872 41.5689 247.465 39.7195C247.796 38.6982 248.044 37.9944 248.209 37.6218C248.375 37.2491 248.54 37.1939 248.705 37.4699C248.871 37.746 249.119 38.3946 249.45 39.4159C250.58 42.5625 251.793 46.0404 253.088 49.8633C254.384 53.6862 255.679 57.5781 256.975 61.539C258.27 65.5 259.525 69.3091 260.765 72.9525C261.992 76.6098 263.108 79.8669 264.1 82.7237C264.5 83.814 264.927 85.0423 265.396 86.4086C265.865 87.7749 266.347 89.1964 266.843 90.6593C267.339 92.1223 267.822 93.5024 268.29 94.7997C268.828 96.442 269.655 97.5047 270.785 98.0291C271.915 98.5398 273.045 98.595 274.175 98.1809C275.306 97.7669 276.146 97.0078 276.711 95.8762C277.277 94.7445 277.263 93.3644 276.656 91.7358C276.188 90.3695 275.705 88.9618 275.209 87.4851Z" fill="#E8E6E8"/>
<path d="M333.261 26.9397C332.131 26.5257 331 26.5947 329.87 27.1468C328.74 27.6988 327.913 28.7891 327.376 30.4176C326.838 32.0599 326.314 33.6609 325.777 35.2342C325.239 36.8075 324.743 38.3532 324.288 39.8852C323.82 41.4171 323.337 42.9214 322.841 44.3843C322.345 45.8472 321.821 47.2964 321.298 48.7317C320.705 50.305 320.002 52.2095 319.203 54.4591C318.403 56.7087 317.576 59.1101 316.708 61.6771C315.84 64.2303 314.985 66.7421 314.117 69.1987C313.249 71.6553 312.491 73.8772 311.829 75.8508C311.567 76.6651 311.319 77.3965 311.085 78.0452C310.85 78.6938 310.657 79.2735 310.492 79.7841C310.327 80.2948 310.161 80.7916 309.996 81.2746C309.831 81.7577 309.665 82.2131 309.5 82.6547C309.334 83.0964 309.155 83.5656 308.948 84.0348C308.742 84.6421 308.576 85.1803 308.452 85.622C308.314 86.0636 308.218 86.3948 308.149 86.5881C308.08 86.7951 308.011 86.9193 307.942 86.9469C307.873 86.9883 307.805 86.8779 307.749 86.6433C307.68 86.4086 307.57 86.0774 307.405 85.6772C307.239 85.2631 307.019 84.7249 306.757 84.0348C306.55 83.4828 306.357 82.9998 306.164 82.5443C305.971 82.1027 305.765 81.6473 305.572 81.1642C305.379 80.6812 305.186 80.1843 305.02 79.6737C304.855 79.1631 304.676 78.611 304.469 78.0314C304.262 77.4517 304.042 76.8169 303.766 76.1406C303.036 74.0981 302.278 71.8761 301.478 69.4885C300.679 67.1009 299.88 64.6443 299.094 62.1187C298.295 59.5931 297.495 57.1227 296.696 54.6937C295.896 52.2647 295.138 50.029 294.408 47.9864C293.815 46.2061 293.195 44.2877 292.561 42.2037C291.927 40.1198 291.266 38.0358 290.563 35.9657C289.86 33.8817 289.157 31.9219 288.426 30.0726C287.765 28.4303 286.841 27.3952 285.684 26.9535C284.526 26.5119 283.396 26.5257 282.293 27.0087C281.19 27.4918 280.405 28.3061 279.909 29.4653C279.413 30.6246 279.454 31.9909 280.06 33.5643C280.791 35.3446 281.494 37.2216 282.155 39.1951C282.817 41.1687 283.465 43.1698 284.099 45.1848C284.733 47.1997 285.339 49.1595 285.945 51.0778C286.676 53.1894 287.475 55.4804 288.33 57.937C289.198 60.3936 290.08 62.9054 290.976 65.4586C291.872 68.0118 292.754 70.5374 293.622 73.0354C294.491 75.5334 295.249 77.8658 295.91 80.0463C296.379 81.3436 296.737 82.4201 297.013 83.2758C297.275 84.1315 297.564 84.9319 297.854 85.6772C298.143 86.4224 298.501 87.4161 298.901 88.6444C299.769 91.101 300.679 93.1298 301.644 94.7307C302.609 96.3316 303.573 97.5047 304.538 98.2638C305.503 99.009 306.495 99.3679 307.529 99.3403C308.563 99.2989 309.582 98.8848 310.616 98.0568C311.65 97.2287 312.656 96.028 313.662 94.4271C314.668 92.8261 315.661 90.8664 316.653 88.534C317.121 87.3747 317.48 86.45 317.755 85.7738C318.017 85.0975 318.307 84.3247 318.596 83.469C318.899 82.6133 319.313 81.4678 319.837 80.0325C320.636 77.921 321.477 75.5748 322.373 73.0216C323.268 70.4684 324.164 67.8876 325.06 65.293C325.956 62.6984 326.811 60.2418 327.596 57.9232C328.396 55.6046 329.085 53.6172 329.691 51.9887C330.229 50.4844 330.752 48.9801 331.29 47.4896C331.827 45.9852 332.337 44.4671 332.834 42.9352C333.33 41.4033 333.84 39.83 334.377 38.229C334.915 36.6281 335.438 34.972 335.976 33.2606C336.513 31.6183 336.472 30.252 335.879 29.1617C335.287 28.0714 334.419 27.3124 333.288 26.9121L333.261 26.9397Z" fill="#E8E6E8"/>
<path d="M348.56 60.5729C348.973 61.3044 349.456 61.9944 350.007 62.6155C350.999 63.7472 352.143 64.6166 353.439 65.2239C354.734 65.8449 356.14 66.1486 357.67 66.1486H378.991C380.328 66.1486 381.39 65.8449 382.175 65.2239C382.961 64.6028 383.498 63.8438 383.774 62.9191C384.036 61.9944 384.036 61.0698 383.774 60.1589C383.512 59.2342 382.975 58.4752 382.175 57.8541C381.376 57.2331 380.315 56.9294 378.991 56.9294H357.766C355.244 56.9294 353.163 57.3297 351.537 58.1025C350.282 58.7098 349.29 59.5379 348.546 60.5591L348.56 60.5729Z" fill="#E8E6E8"/>
<path d="M355.782 46.3855V41.6793C355.782 39.7748 355.92 38.5051 356.182 37.8978C356.443 37.2768 357.505 36.9732 359.365 36.9732H380.99C382.644 36.9732 383.912 36.5177 384.78 35.593C385.649 34.6684 386.076 33.5919 386.076 32.3636C386.076 31.1353 385.649 30.0588 384.78 29.1341C383.912 28.2095 382.658 27.754 380.99 27.754H359.365C356.306 27.754 353.866 28.2647 352.047 29.2859C350.214 30.3072 348.891 31.8668 348.064 33.9369C347.237 36.0209 346.823 38.5879 346.823 41.6655V53.7415C346.823 55.5218 347.099 57.1504 347.664 58.6547C347.912 59.3309 348.215 59.952 348.56 60.5592C349.304 59.5241 350.296 58.6961 351.551 58.1026C353.177 57.316 355.258 56.9295 357.78 56.9295H357.684C357.353 56.9295 357.064 56.8329 356.843 56.6259C356.609 56.4189 356.416 56.1705 356.25 55.8531C356.085 55.5494 355.975 55.2044 355.906 54.8318C355.837 54.4591 355.809 54.1003 355.809 53.7553V46.3855H355.782Z" fill="#E8E6E8"/>
<path d="M350.007 62.6156C349.456 61.9945 348.973 61.3045 348.56 60.573C348.339 60.8766 348.133 61.194 347.967 61.5391C347.195 63.0434 346.823 64.8513 346.823 66.9629V84.8767C346.823 87.8854 347.306 90.3005 348.27 92.1499C349.235 93.9992 350.627 95.3242 352.46 96.1384C354.28 96.9527 356.526 97.3667 359.186 97.3667H381.018C382.672 97.3667 383.926 96.9113 384.753 95.9866C385.58 95.0619 385.993 93.9854 385.993 92.7571C385.993 91.5288 385.58 90.4524 384.753 89.5277C383.926 88.603 382.672 88.1476 381.018 88.1476H359.186C357.725 88.1476 356.802 88.0096 356.402 87.7335C356.002 87.4575 355.809 86.5053 355.809 84.8629V66.9491C355.809 66.3971 355.975 66.1348 356.306 66.1348H357.698C356.168 66.1348 354.762 65.8312 353.466 65.2102C352.171 64.5891 351.027 63.7196 350.035 62.6018L350.007 62.6156Z" fill="#E8E6E8"/>
<path d="M432.123 88.1613H413.489C411.89 88.1613 410.691 88.0923 409.906 87.9543C409.106 87.8163 408.582 87.3885 408.307 86.6708C408.045 85.9531 407.907 84.8077 407.907 83.2343V31.8529C407.907 30.1415 407.452 28.8718 406.556 28.0162C405.661 27.1605 404.613 26.7327 403.414 26.7327C402.215 26.7327 401.167 27.1605 400.272 28.0162C399.376 28.8718 398.921 30.1553 398.921 31.8529V78.7352C398.921 82.6271 399.017 85.8013 399.224 88.2579C399.431 90.7145 399.927 92.5915 400.713 93.8888C401.512 95.1861 402.766 96.0831 404.503 96.6076C406.226 97.1182 408.582 97.3804 411.573 97.3804H432.109C433.763 97.3804 435.017 96.925 435.844 96.0003C436.671 95.0757 437.085 93.9992 437.085 92.7709C437.085 91.5426 436.671 90.4661 435.844 89.5414C435.017 88.6167 433.763 88.1613 432.109 88.1613H432.123Z" fill="#E8E6E8"/>
<path d="M477.77 88.1613H459.136C457.538 88.1613 456.339 88.0923 455.553 87.9543C454.754 87.8163 454.23 87.3885 453.954 86.6708C453.692 85.9531 453.555 84.8077 453.555 83.2343V31.8529C453.555 30.1415 453.1 28.8718 452.204 28.0162C451.308 27.1605 450.261 26.7327 449.061 26.7327C447.862 26.7327 446.815 27.1605 445.919 28.0162C445.023 28.8718 444.568 30.1553 444.568 31.8529V78.7352C444.568 82.6271 444.665 85.8013 444.872 88.2579C445.078 90.7145 445.574 92.5915 446.36 93.8888C447.159 95.1861 448.414 96.0831 450.15 96.6076C451.873 97.1182 454.23 97.3804 457.221 97.3804H477.757C479.411 97.3804 480.665 96.925 481.492 96.0003C482.319 95.0757 482.732 93.9992 482.732 92.7709C482.732 91.5426 482.319 90.4661 481.492 89.5414C480.665 88.6167 479.411 88.1613 477.757 88.1613H477.77Z" fill="#E8E6E8"/>
<path d="M492.959 60.5729C493.373 61.3044 493.855 61.9944 494.406 62.6155C495.399 63.7472 496.543 64.6166 497.838 65.2239C499.134 65.8449 500.539 66.1486 502.069 66.1486H523.391C524.714 66.1486 525.789 65.8449 526.575 65.2239C527.36 64.6028 527.898 63.8438 528.173 62.9191C528.435 61.9944 528.435 61.0698 528.173 60.1589C527.912 59.2342 527.374 58.4752 526.575 57.8541C525.775 57.2331 524.714 56.9294 523.391 56.9294H502.166C499.644 56.9294 497.562 57.3297 495.936 58.1025C494.682 58.7098 493.69 59.5379 492.945 60.5591L492.959 60.5729Z" fill="#E8E6E8"/>
<path d="M500.181 46.3855V41.6793C500.181 39.7748 500.319 38.5051 500.581 37.8978C500.842 37.2768 501.904 36.9732 503.764 36.9732H525.389C527.043 36.9732 528.311 36.5177 529.179 35.593C530.047 34.6684 530.475 33.5919 530.475 32.3636C530.475 31.1353 530.047 30.0588 529.179 29.1341C528.311 28.2095 527.057 27.754 525.389 27.754H503.764C500.705 27.754 498.265 28.2647 496.446 29.2859C494.613 30.3072 493.29 31.8668 492.463 33.9369C491.636 36.0209 491.222 38.5879 491.222 41.6655V53.7415C491.222 55.5218 491.498 57.1504 492.063 58.6547C492.311 59.3309 492.614 59.952 492.959 60.5592C493.703 59.5241 494.695 58.6961 495.95 58.1026C497.576 57.316 499.657 56.9295 502.179 56.9295H502.083C501.752 56.9295 501.463 56.8329 501.242 56.6259C501.008 56.4189 500.815 56.1705 500.649 55.8531C500.484 55.5494 500.36 55.2044 500.305 54.8318C500.236 54.4591 500.208 54.1003 500.208 53.7553V46.3855H500.181Z" fill="#E8E6E8"/>
<path d="M494.406 62.6156C493.855 61.9945 493.372 61.3045 492.959 60.573C492.738 60.8766 492.531 61.194 492.366 61.5391C491.594 63.0434 491.222 64.8513 491.222 66.9629V84.8767C491.222 87.8854 491.705 90.3005 492.669 92.1499C493.634 93.9992 495.026 95.3242 496.859 96.1384C498.678 96.9527 500.925 97.3667 503.585 97.3667H525.403C527.057 97.3667 528.311 96.9113 529.138 95.9866C529.965 95.0619 530.378 93.9854 530.378 92.7571C530.378 91.5288 529.965 90.4524 529.138 89.5277C528.311 88.603 527.057 88.1476 525.403 88.1476H503.585C502.124 88.1476 501.187 88.0096 500.787 87.7335C500.388 87.4575 500.195 86.5053 500.195 84.8629V66.9491C500.195 66.3971 500.36 66.1348 500.691 66.1348H502.083C500.553 66.1348 499.147 65.8312 497.852 65.2102C496.556 64.5891 495.412 63.7196 494.42 62.6018L494.406 62.6156Z" fill="#E8E6E8"/>
<path d="M560.383 69.4194H563.471C567.454 69.4194 571.092 68.5362 574.386 66.7558C574.593 66.6454 574.758 66.5074 574.965 66.397C573.876 65.2653 572.636 64.2302 571.203 63.3194C569.645 62.3257 567.812 61.5666 565.717 61.0146C563.622 60.4625 561.155 60.2003 558.288 60.2003C556.965 60.2003 555.876 60.5039 555.049 61.125C554.222 61.7322 553.671 62.5051 553.409 63.4298C553.147 64.3544 553.147 65.2791 553.409 66.19C553.671 67.1147 554.222 67.8737 555.049 68.4948C555.876 69.1158 556.965 69.4194 558.288 69.4194H560.383Z" fill="#E8E6E8"/>
<path d="M590.967 90.8112C589.836 88.9619 588.761 87.1953 587.728 85.484C586.694 83.7727 585.688 82.0889 584.682 80.419C583.689 78.7491 582.669 77.1067 581.65 75.5058C580.616 73.9049 579.568 72.3178 578.507 70.7444C577.515 69.3091 576.426 67.9704 575.268 66.7007C575.172 66.5903 575.048 66.5075 574.951 66.3971C574.758 66.5075 574.579 66.6455 574.372 66.7559C571.078 68.5363 567.44 69.4195 563.457 69.4195H558.274C560.934 69.4195 562.96 69.6266 564.353 70.0268C565.745 70.427 566.93 71.1171 567.895 72.0693C568.859 73.0216 569.934 74.3603 571.134 76.0579C572.195 77.4932 573.215 78.9975 574.179 80.557C575.144 82.1303 576.123 83.7313 577.115 85.3736C578.107 87.0159 579.127 88.6997 580.161 90.4386C581.195 92.1775 582.27 93.9441 583.4 95.7106C584.323 97.2149 585.412 98.0706 586.639 98.2638C587.865 98.4708 588.968 98.25 589.933 97.6014C590.898 96.9527 591.545 96.0142 591.876 94.7859C592.207 93.5576 591.904 92.2189 590.98 90.7974L590.967 90.8112Z" fill="#E8E6E8"/>
<path d="M571.188 63.3332C572.622 64.2441 573.862 65.2792 574.951 66.4109C577.956 64.6719 580.409 62.3672 582.256 59.4413C584.213 56.3361 585.191 52.734 585.191 48.6351C585.191 45.6264 584.682 42.8662 583.648 40.3406C582.614 37.815 581.139 35.6207 579.21 33.7437C577.28 31.8668 574.979 30.4038 572.277 29.3412C569.59 28.2785 566.585 27.754 563.263 27.754H554.002C551.741 27.754 549.922 28.0991 548.516 28.7753C547.124 29.4516 546.035 30.4866 545.277 31.853C544.506 33.2193 543.996 34.972 543.734 37.125C543.472 39.2779 543.334 41.7759 543.334 44.6466V93.2678C543.334 94.9791 543.789 96.2764 544.685 97.1597C545.581 98.043 546.628 98.4846 547.827 98.4846C549.026 98.4846 550.074 98.043 550.97 97.1597C551.865 96.2764 552.32 94.9791 552.32 93.2678V44.6466C552.32 43.4183 552.306 42.328 552.265 41.3757C552.237 40.4234 552.265 39.623 552.362 38.9743C552.458 38.3257 552.706 37.8288 553.106 37.4838C553.505 37.1388 554.139 36.9732 554.994 36.9732H563.263C565.924 36.9732 568.211 37.4562 570.141 38.4085C572.071 39.3607 573.559 40.7133 574.62 42.4522C575.682 44.1911 576.219 46.2613 576.219 48.6489C576.219 51.0365 575.723 53.1066 574.731 54.8456C573.738 56.5845 572.36 57.9232 570.596 58.8341C568.832 59.7588 566.792 60.2142 564.463 60.2142H558.288C561.141 60.2142 563.622 60.4902 565.717 61.0285C567.812 61.5805 569.631 62.3396 571.202 63.3332H571.188Z" fill="#E8E6E8"/>
<path d="M45.3995 77.5621C41.5817 69.0745 49.1759 58.7098 58.7134 59.5793C60.0503 58.558 61.5526 57.4263 63.2341 56.1566C65.1774 54.6799 66.8589 53.3964 68.2922 52.3199C69.9461 51.064 71.6276 50.236 73.3229 49.8495C73.6123 49.7805 73.9017 49.7391 74.1912 49.7115C77.7195 25.5044 60.9737 -2.09777 33.96 2.6636C33.5603 2.78781 33.1744 2.89822 32.7747 3.02243C11.9356 9.71596 3.87281 24.4555 1.13009 37.9806C-0.813239 47.5447 -0.193026 57.3435 2.63239 66.5627C10.0336 52.1819 20.9218 39.5953 36.1377 32.8604C37.3919 31.9633 38.7563 31.1077 40.2311 30.2658C42.1193 29.1893 44.1591 28.2232 46.3505 27.3676C48.5419 26.5119 50.8712 25.7252 53.3244 25.0352C55.13 24.5521 56.6047 24.6763 57.7486 25.3802C58.8926 26.0841 59.6231 27.0501 59.9401 28.2922C60.257 29.5205 60.1054 30.7212 59.4577 31.8805C58.8099 33.0398 57.6384 33.8679 55.9293 34.3509C52.8972 35.1238 50.1407 36.1036 47.6461 37.2767C45.1514 38.4498 42.9324 39.7747 40.9891 41.2515C37.888 43.6942 35.545 46.4269 33.9325 49.4355C32.3199 52.4579 31.4516 55.6184 31.2862 58.9168C31.1346 62.2153 31.6308 65.5552 32.7747 68.895C33.9325 72.2487 35.6828 75.4368 38.0534 78.4868C40.4654 81.592 43.1392 84.1452 46.0611 86.1464C48.983 88.1476 52.0427 89.5415 55.254 90.3419C58.4653 91.1424 62.1589 91.316 65.4667 90.6121C65.4943 90.6121 69.5739 89.2458 69.6015 89.232C61.332 78.4868 48.5281 85.0423 45.3719 77.5759L45.3995 77.5621Z" fill="#F25C05"/>
<path d="M84.0182 72.6903C83.4669 71.048 82.5572 69.4057 81.2755 67.7633C80.0075 66.121 78.643 64.3821 77.1958 62.5189C76.3551 61.4424 75.6798 60.7248 75.1698 60.3522C74.6599 59.9795 74.1913 59.9519 73.7916 60.2556C71.6828 61.8565 69.7671 63.3194 68.0443 64.6167C66.3352 65.914 64.9846 66.9353 64.0198 67.6805C62.5864 68.7708 61.2081 69.2125 59.8712 69.0054C58.5343 68.8122 57.4731 68.205 56.6875 67.1837C55.9019 66.1624 55.5711 65.0031 55.7227 63.6644C55.8743 62.3395 56.6599 61.1388 58.0933 60.0485C58.3 59.8967 58.5068 59.7311 58.7135 59.5793C41.5681 57.6885 40.2863 70.3934 44.104 78.8811C47.2602 86.3475 56.6737 90.0383 65.1362 90.4385C68.4164 89.7209 71.5864 88.189 74.6461 85.8704C77.4439 83.745 79.5802 81.8405 81.0274 80.1429C82.4883 78.4592 83.4255 76.9687 83.8528 75.7128C84.2801 74.4431 84.3352 73.4356 84.0182 72.6903Z" fill="#F25C05"/>
<path d="M93.4453 27.9886C93.4453 27.9886 76.5755 -10.2405 33.96 2.66356C60.9737 -2.09782 77.7194 25.5182 74.1911 49.7115C75.6107 49.5735 77.0716 49.8771 78.5739 50.6361C80.3794 51.5608 82.2677 53.286 84.2523 55.8254C85.92 57.9645 87.312 59.7587 88.4422 61.194C89.5586 62.6293 90.4958 63.9818 91.2538 65.2515C91.7224 66.052 92.1497 66.9214 92.5494 67.8185C92.8664 67.1837 93.1696 66.5626 93.459 65.9554C101.549 48.98 93.459 28.0024 93.459 28.0024L93.4453 27.9886Z" fill="#FFCA3A"/>
<path d="M2.61865 66.5627C2.64622 66.6455 2.67378 66.7422 2.70135 66.825C8.39352 85.1252 22.8927 102.045 35.2005 116.481C37.6124 119.311 40.2173 122.195 43.7181 123.478C50.692 126.059 58.3689 121.325 62.9309 115.515C67.4791 109.705 70.3597 102.611 75.6384 97.422C59.7885 103.453 40.2173 97.9602 29.9356 84.6008C18.124 69.2264 19.5987 45.6265 35.0765 33.6195C35.421 33.3573 35.7794 33.0951 36.1377 32.8467C20.9218 39.5954 10.0199 52.182 2.61865 66.5627Z" fill="#090452"/>
<path d="M66.7061 89.0715C66.0266 89.2855 64.9075 89.2855 64.228 89.0715C58.4325 87.3061 45.4824 79.9411 45.4824 67.4581C45.4824 61.9477 49.684 57.4895 55.8193 57.4895C59.4565 57.4895 63.4486 59.0588 65.4671 61.4841C67.4855 59.0588 70.723 57.4895 74.3402 57.4895C80.4755 57.4895 85.4517 61.9477 85.4517 67.4581C85.4517 79.9411 72.5016 87.3061 66.7061 89.0715Z" fill="#E8E6E8" stroke="#E8E6E8" stroke-width="1.5" stroke-linecap="round" stroke-linejoin="round"/>
</g>
<defs>
<clipPath id="clip0_58_2596">
<rect width="592" height="124.21" fill="white"/>
</clipPath>
</defs>
</svg>
