<svg width="592" height="125" viewBox="0 0 592 125" fill="none" xmlns="http://www.w3.org/2000/svg">
<g clip-path="url(#clip0_58_2826)">
<path d="M126.882 30.1286C125.021 29.2741 123.05 28.6677 120.955 28.2818C118.861 27.9096 116.779 27.7167 114.726 27.7167C113.403 27.7167 112.314 28.0199 111.487 28.6401C110.66 29.2603 110.109 30.0184 109.847 30.9418C109.585 31.8652 109.585 32.7886 109.847 33.6983C110.109 34.6217 110.66 35.3797 111.487 36C112.314 36.6202 113.403 36.9234 114.726 36.9234H134.586C133.856 35.6141 132.946 34.4563 131.857 33.4502C130.397 32.0857 128.729 30.9831 126.868 30.1286H126.882Z" fill="#E8E6E8"/>
<path d="M120.252 36.9233H114.726C116.324 36.9233 117.882 36.9647 119.412 37.0198C120.941 37.0887 122.32 37.3644 123.546 37.833C124.773 38.3154 125.752 39.1147 126.482 40.2311C127.213 41.3613 127.585 42.9738 127.585 45.0826V93.1284C127.585 94.8374 128.039 96.133 128.935 97.015C129.831 97.8971 130.879 98.3382 132.078 98.3382C133.277 98.3382 134.324 97.8971 135.22 97.015C136.116 96.133 136.571 94.8374 136.571 93.1284V45.0826C136.571 42.4914 136.157 40.2449 135.33 38.3291C135.11 37.833 134.876 37.3506 134.614 36.8958H120.28L120.252 36.9233Z" fill="#E8E6E8"/>
<path d="M149.402 27.7167H114.726C116.779 27.7167 118.86 27.9096 120.955 28.2818C123.05 28.6539 125.021 29.2741 126.882 30.1286C128.742 30.9831 130.396 32.0857 131.871 33.4502C132.946 34.4563 133.856 35.6141 134.6 36.9234H149.416C151.139 36.9234 152.421 36.4686 153.248 35.5451C154.075 34.6217 154.488 33.5467 154.488 32.32C154.488 31.0934 154.075 30.0184 153.248 29.0949C152.421 28.1715 151.139 27.7167 149.416 27.7167H149.402Z" fill="#E8E6E8"/>
<path d="M192.693 63.248C194.127 64.1576 195.367 65.1913 196.456 66.3215C199.461 64.5849 201.914 62.2832 203.761 59.3613C205.718 56.2602 206.696 52.663 206.696 48.5696C206.696 45.565 206.186 42.8085 205.153 40.2863C204.119 37.7641 202.644 35.5727 200.715 33.6983C198.785 31.8239 196.484 30.3629 193.782 29.3017C191.095 28.2404 188.09 27.7167 184.768 27.7167H175.507C173.246 27.7167 171.427 28.0612 170.021 28.7366C168.629 29.4119 167.54 30.4456 166.782 31.8101C166.024 33.1745 165.5 34.9249 165.239 37.075C164.977 39.2251 164.839 41.7197 164.839 44.5865V93.1422C164.839 94.8513 165.294 96.1468 166.19 97.0289C167.085 97.911 168.133 98.352 169.332 98.352C170.531 98.352 171.579 97.911 172.474 97.0289C173.37 96.1468 173.825 94.8513 173.825 93.1422V44.5865C173.825 43.3598 173.811 42.271 173.77 41.32C173.742 40.369 173.77 39.5696 173.866 38.9219C173.963 38.2741 174.211 37.7779 174.611 37.4333C175.01 37.0888 175.644 36.9234 176.499 36.9234H184.768C187.428 36.9234 189.716 37.4058 191.646 38.3568C193.575 39.3078 195.064 40.6584 196.125 42.395C197.186 44.1316 197.724 46.199 197.724 48.5834C197.724 50.9678 197.228 53.0351 196.235 54.7717C195.243 56.5083 193.865 57.8452 192.101 58.7549C190.337 59.6783 188.297 60.1331 185.967 60.1331H179.793C182.646 60.1331 185.127 60.4088 187.222 60.9463C189.317 61.4976 191.136 62.2556 192.707 63.248H192.693Z" fill="#E8E6E8"/>
<path d="M181.888 69.326H184.975C188.958 69.326 192.597 68.4439 195.891 66.666C196.097 66.5557 196.263 66.4179 196.47 66.3076C195.381 65.1774 194.14 64.1438 192.707 63.2341C191.149 62.2418 189.316 61.4837 187.221 60.9324C185.127 60.3811 182.659 60.1193 179.793 60.1193C178.456 60.1193 177.381 60.4225 176.554 61.0427C175.727 61.6491 175.176 62.4209 174.914 63.3444C174.652 64.2678 174.652 65.1912 174.914 66.1009C175.176 67.0243 175.727 67.7823 176.554 68.4026C177.381 69.0228 178.456 69.326 179.793 69.326H181.888Z" fill="#E8E6E8"/>
<path d="M209.246 85.3826C208.213 83.6736 207.206 81.9921 206.214 80.3244C205.222 78.6568 204.202 77.0166 203.168 75.4179C202.134 73.8191 201.087 72.2341 200.026 70.6629C199.033 69.2295 197.945 67.8926 196.787 66.6246C196.69 66.5144 196.566 66.4317 196.47 66.3214C196.277 66.4317 196.098 66.5695 195.891 66.6798C192.597 68.4577 188.958 69.3398 184.975 69.3398H179.793C182.453 69.3398 184.479 69.5465 185.871 69.9462C187.263 70.3459 188.448 71.035 189.413 71.986C190.378 72.937 191.453 74.2739 192.652 75.9692C193.713 77.4025 194.733 78.9048 195.684 80.4623C196.649 82.0335 197.628 83.6322 198.62 85.2724C199.612 86.9125 200.632 88.5939 201.666 90.3305C202.7 92.0671 203.775 93.8313 204.905 95.5955C205.828 97.0978 206.917 97.9523 208.144 98.1452C209.37 98.352 210.473 98.1314 211.438 97.4837C212.402 96.8359 213.05 95.8987 213.381 94.672C213.712 93.4454 213.409 92.1085 212.485 90.6889C211.355 88.842 210.28 87.0779 209.246 85.3688V85.3826Z" fill="#E8E6E8"/>
<path d="M237.693 70.3459C235.24 70.3459 233.131 70.7456 231.367 71.5174C231.091 71.6415 230.829 71.7931 230.554 71.9309C230.76 72.5098 230.981 73.0749 231.257 73.6124C232.221 75.4592 233.655 76.9064 235.543 77.9539C237.431 79.0151 239.816 79.5389 242.669 79.5389H255.031C256.355 79.5389 257.443 79.2357 258.27 78.6154C259.097 78.009 259.649 77.2372 259.91 76.3138C260.172 75.3903 260.172 74.4669 259.91 73.5573C259.649 72.6338 259.097 71.8758 258.27 71.2556C257.443 70.6354 256.355 70.3322 255.031 70.3322H237.693V70.3459Z" fill="#E8E6E8"/>
<path d="M231.271 73.6262C230.995 73.0886 230.761 72.5236 230.568 71.9447C229.176 72.689 227.99 73.6675 227.039 74.8942C225.909 76.3551 224.986 78.1882 224.242 80.3658C223.773 81.7303 223.332 83.0121 222.891 84.1973C222.464 85.3964 222.05 86.5817 221.65 87.7808C221.251 88.9799 220.823 90.2479 220.355 91.6123C219.762 93.2525 219.735 94.6307 220.3 95.7471C220.865 96.8773 221.706 97.6353 222.836 98.0488C223.966 98.4622 225.096 98.4071 226.226 97.8972C227.356 97.3872 228.183 96.3122 228.721 94.6721C229.189 93.3076 229.63 92.0258 230.072 90.8405C230.499 89.6414 230.912 88.4561 231.312 87.2571C231.712 86.0718 232.139 84.79 232.607 83.4255C233.007 82.4745 233.366 81.7027 233.71 81.1239C234.041 80.545 234.509 80.1315 235.102 79.8972C235.695 79.6629 236.563 79.5389 237.693 79.5389H242.683C239.83 79.5389 237.445 79.0151 235.557 77.9539C233.669 76.8926 232.235 75.4455 231.271 73.6124V73.6262Z" fill="#E8E6E8"/>
<path d="M275.209 87.3673C274.713 85.9064 274.231 84.4868 273.762 83.1223C273.293 81.7578 272.866 80.5725 272.466 79.5388C271.667 77.2923 270.799 74.7563 269.875 71.9171C268.938 69.0917 267.96 66.1147 266.94 62.9723C265.906 59.8436 264.859 56.6461 263.797 53.4072C262.736 50.1683 261.675 46.9846 260.614 43.8421C259.552 40.7135 258.519 37.7365 257.526 34.9524C256.465 32.0168 255.114 29.8253 253.488 28.3644C251.862 26.9034 250.153 26.173 248.361 26.173C246.569 26.173 244.888 26.9034 243.33 28.3644C241.773 29.8253 240.491 31.9892 239.499 34.856C238.768 37.1714 238.038 39.4042 237.307 41.5543C236.577 43.7043 235.86 45.7855 235.157 47.7839C234.454 49.7962 233.765 51.7533 233.062 53.6691C232.359 55.5711 231.712 57.4455 231.119 59.2923C230.196 62.0902 229.741 64.7089 229.768 67.1621C229.796 68.9125 230.058 70.4837 230.554 71.9171C230.816 71.7793 231.078 71.6277 231.367 71.5036C233.131 70.718 235.24 70.3321 237.693 70.3321H242.682C241.483 70.3321 240.574 70.1529 239.94 69.767C239.306 69.3949 238.92 68.8436 238.796 68.1269C238.658 67.4102 238.672 66.5557 238.851 65.5772C239.016 64.5848 239.306 63.5098 239.692 62.3521C240.284 60.5052 240.918 58.6446 241.58 56.7288C242.241 54.8268 242.903 52.911 243.578 51.009C244.24 49.1071 244.901 47.1913 245.577 45.2893C246.238 43.3873 246.872 41.5129 247.465 39.666C247.796 38.6461 248.044 37.9432 248.209 37.5711C248.375 37.199 248.54 37.1438 248.705 37.4195C248.871 37.6951 249.119 38.3429 249.45 39.3628C250.58 42.5052 251.793 45.9784 253.088 49.7962C254.384 53.6139 255.679 57.5006 256.975 61.4562C258.27 65.4118 259.525 69.2157 260.765 72.8543C261.992 76.5067 263.108 79.7594 264.1 82.6123C264.5 83.7011 264.927 84.9278 265.396 86.2923C265.865 87.6567 266.347 89.0763 266.843 90.5373C267.339 91.9982 267.822 93.3765 268.29 94.672C268.828 96.3122 269.655 97.3734 270.785 97.8971C271.915 98.4071 273.045 98.4622 274.175 98.0487C275.306 97.6353 276.146 96.8772 276.711 95.7471C277.277 94.6169 277.263 93.2387 276.656 91.6123C276.188 90.2478 275.705 88.842 275.209 87.3673Z" fill="#E8E6E8"/>
<path d="M333.261 26.9034C332.131 26.49 331 26.5589 329.87 27.1102C328.74 27.6615 327.913 28.7503 327.376 30.3766C326.838 32.0168 326.314 33.6155 325.777 35.1867C325.239 36.7579 324.743 38.3016 324.288 39.8314C323.82 41.3613 323.337 42.8636 322.841 44.3245C322.345 45.7855 321.821 47.2326 321.298 48.666C320.705 50.2372 320.002 52.1392 319.203 54.3858C318.403 56.6323 317.576 59.0305 316.708 61.594C315.84 64.1438 314.985 66.6522 314.117 69.1055C313.249 71.5588 312.491 73.7777 311.829 75.7486C311.567 76.5618 311.319 77.2923 311.085 77.9401C310.85 78.5878 310.657 79.1667 310.492 79.6767C310.327 80.1866 310.161 80.6828 309.996 81.1652C309.831 81.6476 309.665 82.1024 309.5 82.5434C309.334 82.9845 309.155 83.4531 308.948 83.9217C308.742 84.5281 308.576 85.0656 308.452 85.5067C308.314 85.9477 308.218 86.2785 308.149 86.4714C308.08 86.6782 308.011 86.8022 307.942 86.8298C307.873 86.8711 307.805 86.7609 307.749 86.5266C307.68 86.2923 307.57 85.9615 307.405 85.5618C307.239 85.1483 307.019 84.6108 306.757 83.9217C306.55 83.3704 306.357 82.888 306.164 82.4332C305.971 81.9921 305.765 81.5373 305.572 81.0549C305.379 80.5725 305.186 80.0764 305.02 79.5664C304.855 79.0564 304.676 78.5051 304.469 77.9263C304.262 77.3474 304.042 76.7134 303.766 76.0381C303.036 73.9983 302.278 71.7793 301.478 69.3949C300.679 67.0105 299.88 64.5572 299.094 62.0351C298.295 59.5129 297.495 57.0458 296.696 54.6201C295.896 52.1943 295.138 49.9616 294.408 47.9218C293.815 46.1438 293.195 44.2281 292.561 42.1469C291.927 40.0657 291.266 37.9846 290.563 35.9172C289.86 33.836 289.157 31.8789 288.426 30.0321C287.765 28.392 286.841 27.3583 285.684 26.9172C284.526 26.4762 283.396 26.49 282.293 26.9724C281.19 27.4547 280.405 28.2679 279.909 29.4256C279.413 30.5834 279.454 31.9478 280.06 33.519C280.791 35.297 281.494 37.1714 282.155 39.1423C282.817 41.1132 283.465 43.1117 284.099 45.1239C284.733 47.1362 285.339 49.0933 285.945 51.009C286.676 53.1178 287.475 55.4057 288.33 57.859C289.198 60.3122 290.08 62.8207 290.976 65.3704C291.872 67.9202 292.754 70.4424 293.622 72.937C294.491 75.4316 295.249 77.7609 295.91 79.9385C296.379 81.2341 296.737 82.3091 297.013 83.1636C297.275 84.0182 297.564 84.8175 297.854 85.5618C298.143 86.3061 298.501 87.2984 298.901 88.525C299.769 90.9783 300.679 93.0043 301.644 94.6031C302.609 96.2019 303.573 97.3734 304.538 98.1314C305.503 98.8757 306.495 99.234 307.529 99.2065C308.563 99.1651 309.582 98.7517 310.616 97.9247C311.65 97.0978 312.656 95.8987 313.662 94.2999C314.668 92.7011 315.661 90.744 316.653 88.4148C317.121 87.257 317.48 86.3336 317.755 85.6583C318.017 84.9829 318.307 84.2111 318.596 83.3566C318.899 82.5021 319.313 81.3581 319.837 79.9247C320.636 77.816 321.477 75.473 322.373 72.9232C323.268 70.3735 324.164 67.7961 325.06 65.205C325.956 62.6139 326.811 60.1606 327.596 57.8452C328.396 55.5297 329.085 53.545 329.691 51.9187C330.229 50.4164 330.752 48.9141 331.29 47.4256C331.827 45.9233 332.337 44.4072 332.834 42.8774C333.33 41.3475 333.84 39.7763 334.377 38.1775C334.915 36.5788 335.438 34.9249 335.976 33.2158C336.513 31.5757 336.472 30.2112 335.879 29.1224C335.287 28.0336 334.419 27.2756 333.288 26.8759L333.261 26.9034Z" fill="#E8E6E8"/>
<path d="M348.56 60.4914C348.973 61.2218 349.456 61.911 350.007 62.5312C350.999 63.6613 352.143 64.5296 353.439 65.1361C354.734 65.7563 356.14 66.0595 357.67 66.0595H378.991C380.328 66.0595 381.39 65.7563 382.175 65.1361C382.961 64.5159 383.498 63.7578 383.774 62.8344C384.036 61.911 384.036 60.9875 383.774 60.0779C383.512 59.1545 382.975 58.3964 382.175 57.7762C381.376 57.156 380.315 56.8528 378.991 56.8528H357.766C355.244 56.8528 353.163 57.2525 351.537 58.0243C350.282 58.6307 349.29 59.4577 348.546 60.4776L348.56 60.4914Z" fill="#E8E6E8"/>
<path d="M355.782 46.3231V41.6232C355.782 39.7212 355.92 38.4532 356.182 37.8468C356.443 37.2266 357.505 36.9234 359.365 36.9234H380.99C382.644 36.9234 383.912 36.4686 384.78 35.5451C385.649 34.6217 386.076 33.5467 386.076 32.32C386.076 31.0934 385.649 30.0184 384.78 29.0949C383.912 28.1715 382.658 27.7167 380.99 27.7167H359.365C356.306 27.7167 353.866 28.2266 352.047 29.2465C350.214 30.2664 348.891 31.8239 348.064 33.8912C347.237 35.9724 346.823 38.5359 346.823 41.6094V53.6691C346.823 55.4471 347.099 57.0734 347.664 58.5757C347.912 59.251 348.215 59.8713 348.56 60.4777C349.304 59.444 350.296 58.6171 351.551 58.0244C353.177 57.2388 355.258 56.8529 357.78 56.8529H357.684C357.353 56.8529 357.064 56.7564 356.843 56.5497C356.609 56.3429 356.416 56.0949 356.25 55.7779C356.085 55.4746 355.975 55.1301 355.906 54.758C355.837 54.3858 355.809 54.0275 355.809 53.6829V46.3231H355.782Z" fill="#E8E6E8"/>
<path d="M350.007 62.5313C349.456 61.9111 348.973 61.2219 348.56 60.4915C348.339 60.7947 348.133 61.1117 347.967 61.4562C347.195 62.9585 346.823 64.764 346.823 66.8728V84.7624C346.823 87.767 347.306 90.179 348.27 92.0258C349.235 93.8727 350.627 95.1958 352.46 96.009C354.28 96.8221 356.526 97.2356 359.186 97.2356H381.018C382.672 97.2356 383.926 96.7808 384.753 95.8574C385.58 94.9339 385.993 93.8589 385.993 92.6323C385.993 91.4056 385.58 90.3306 384.753 89.4072C383.926 88.4837 382.672 88.0289 381.018 88.0289H359.186C357.725 88.0289 356.802 87.8911 356.402 87.6154C356.002 87.3398 355.809 86.3888 355.809 84.7487V66.859C355.809 66.3077 355.975 66.0458 356.306 66.0458H357.698C356.168 66.0458 354.762 65.7426 353.466 65.1224C352.171 64.5022 351.027 63.6339 350.035 62.5175L350.007 62.5313Z" fill="#E8E6E8"/>
<path d="M432.123 88.0427H413.489C411.89 88.0427 410.691 87.9738 409.906 87.836C409.106 87.6981 408.582 87.2709 408.307 86.5542C408.045 85.8375 407.907 84.6936 407.907 83.1224V31.8101C407.907 30.1011 407.452 28.8331 406.556 27.9785C405.661 27.124 404.613 26.6968 403.414 26.6968C402.215 26.6968 401.167 27.124 400.272 27.9785C399.376 28.8331 398.921 30.1148 398.921 31.8101V78.6293C398.921 82.5159 399.017 85.6859 399.224 88.1392C399.431 90.5925 399.927 92.4669 400.713 93.7624C401.512 95.058 402.766 95.9539 404.503 96.4776C406.226 96.9876 408.582 97.2494 411.573 97.2494H432.109C433.763 97.2494 435.017 96.7946 435.844 95.8712C436.671 94.9477 437.085 93.8727 437.085 92.6461C437.085 91.4194 436.671 90.3444 435.844 89.421C435.017 88.4975 433.763 88.0427 432.109 88.0427H432.123Z" fill="#E8E6E8"/>
<path d="M477.77 88.0427H459.136C457.538 88.0427 456.339 87.9738 455.553 87.836C454.754 87.6981 454.23 87.2709 453.954 86.5542C453.692 85.8375 453.555 84.6936 453.555 83.1224V31.8101C453.555 30.1011 453.1 28.8331 452.204 27.9785C451.308 27.124 450.261 26.6968 449.061 26.6968C447.862 26.6968 446.815 27.124 445.919 27.9785C445.023 28.8331 444.568 30.1148 444.568 31.8101V78.6293C444.568 82.5159 444.665 85.6859 444.872 88.1392C445.078 90.5925 445.574 92.4669 446.36 93.7624C447.159 95.058 448.414 95.9539 450.15 96.4776C451.873 96.9876 454.23 97.2494 457.221 97.2494H477.757C479.411 97.2494 480.665 96.7946 481.492 95.8712C482.319 94.9477 482.732 93.8727 482.732 92.6461C482.732 91.4194 482.319 90.3444 481.492 89.421C480.665 88.4975 479.411 88.0427 477.757 88.0427H477.77Z" fill="#E8E6E8"/>
<path d="M492.959 60.4914C493.373 61.2218 493.855 61.911 494.406 62.5312C495.399 63.6613 496.543 64.5296 497.838 65.1361C499.134 65.7563 500.539 66.0595 502.069 66.0595H523.391C524.714 66.0595 525.789 65.7563 526.575 65.1361C527.36 64.5159 527.898 63.7578 528.173 62.8344C528.435 61.911 528.435 60.9875 528.173 60.0779C527.912 59.1545 527.374 58.3964 526.575 57.7762C525.775 57.156 524.714 56.8528 523.391 56.8528H502.166C499.644 56.8528 497.562 57.2525 495.936 58.0243C494.682 58.6307 493.69 59.4577 492.945 60.4776L492.959 60.4914Z" fill="#E8E6E8"/>
<path d="M500.181 46.3231V41.6232C500.181 39.7212 500.319 38.4532 500.581 37.8468C500.842 37.2266 501.904 36.9234 503.764 36.9234H525.389C527.043 36.9234 528.311 36.4686 529.179 35.5451C530.048 34.6217 530.475 33.5467 530.475 32.32C530.475 31.0934 530.048 30.0184 529.179 29.0949C528.311 28.1715 527.057 27.7167 525.389 27.7167H503.764C500.705 27.7167 498.265 28.2266 496.446 29.2465C494.613 30.2664 493.29 31.8239 492.463 33.8912C491.636 35.9724 491.222 38.5359 491.222 41.6094V53.6691C491.222 55.4471 491.498 57.0734 492.063 58.5757C492.311 59.251 492.614 59.8713 492.959 60.4777C493.703 59.444 494.695 58.6171 495.95 58.0244C497.576 57.2388 499.657 56.8529 502.179 56.8529H502.083C501.752 56.8529 501.463 56.7564 501.242 56.5497C501.008 56.3429 500.815 56.0949 500.649 55.7779C500.484 55.4746 500.36 55.1301 500.305 54.758C500.236 54.3858 500.208 54.0275 500.208 53.6829V46.3231H500.181Z" fill="#E8E6E8"/>
<path d="M494.406 62.5313C493.855 61.9111 493.372 61.2219 492.959 60.4915C492.738 60.7947 492.531 61.1117 492.366 61.4562C491.594 62.9585 491.222 64.764 491.222 66.8728V84.7624C491.222 87.767 491.705 90.179 492.669 92.0258C493.634 93.8727 495.026 95.1958 496.859 96.009C498.678 96.8221 500.925 97.2356 503.585 97.2356H525.403C527.057 97.2356 528.311 96.7808 529.138 95.8574C529.965 94.9339 530.378 93.8589 530.378 92.6323C530.378 91.4056 529.965 90.3306 529.138 89.4072C528.311 88.4837 527.057 88.0289 525.403 88.0289H503.585C502.124 88.0289 501.187 87.8911 500.787 87.6154C500.388 87.3398 500.195 86.3888 500.195 84.7487V66.859C500.195 66.3077 500.36 66.0458 500.691 66.0458H502.083C500.553 66.0458 499.147 65.7426 497.852 65.1224C496.556 64.5022 495.412 63.6339 494.42 62.5175L494.406 62.5313Z" fill="#E8E6E8"/>
<path d="M560.383 69.326H563.47C567.453 69.326 571.092 68.4439 574.386 66.666C574.593 66.5557 574.758 66.4179 574.965 66.3076C573.876 65.1774 572.635 64.1438 571.202 63.2341C569.645 62.2418 567.812 61.4837 565.717 60.9324C563.622 60.3811 561.155 60.1193 558.288 60.1193C556.965 60.1193 555.876 60.4225 555.049 61.0427C554.222 61.6491 553.671 62.4209 553.409 63.3444C553.147 64.2678 553.147 65.1912 553.409 66.1009C553.671 67.0243 554.222 67.7823 555.049 68.4026C555.876 69.0228 556.965 69.326 558.288 69.326H560.383Z" fill="#E8E6E8"/>
<path d="M590.967 90.6889C589.836 88.842 588.761 87.0779 587.728 85.3688C586.694 83.6598 585.688 81.9783 584.682 80.3106C583.689 78.643 582.669 77.0028 581.65 75.4041C580.616 73.8053 579.568 72.2203 578.507 70.6491C577.515 69.2157 576.426 67.8788 575.268 66.6108C575.172 66.5006 575.048 66.4179 574.951 66.3076C574.758 66.4179 574.579 66.5557 574.372 66.666C571.078 68.4439 567.44 69.326 563.457 69.326H558.274C560.934 69.326 562.96 69.5327 564.353 69.9324C565.745 70.3321 566.93 71.0212 567.895 71.9722C568.859 72.9232 569.934 74.2601 571.134 75.9554C572.195 77.3888 573.215 78.891 574.179 80.4485C575.144 82.0197 576.123 83.6184 577.115 85.2586C578.107 86.8987 579.127 88.5801 580.161 90.3167C581.195 92.0533 582.27 93.8175 583.4 95.5817C584.323 97.084 585.412 97.9385 586.639 98.1314C587.865 98.3382 588.968 98.1176 589.933 97.4699C590.898 96.8221 591.545 95.8849 591.876 94.6582C592.207 93.4316 591.904 92.0947 590.98 90.6751L590.967 90.6889Z" fill="#E8E6E8"/>
<path d="M571.188 63.248C572.622 64.1576 573.862 65.1913 574.951 66.3215C577.956 64.5849 580.409 62.2832 582.256 59.3613C584.213 56.2602 585.191 52.663 585.191 48.5696C585.191 45.565 584.682 42.8085 583.648 40.2863C582.614 37.7641 581.139 35.5727 579.21 33.6983C577.28 31.8239 574.979 30.3629 572.277 29.3017C569.59 28.2404 566.585 27.7167 563.263 27.7167H554.002C551.741 27.7167 549.922 28.0612 548.516 28.7366C547.124 29.4119 546.035 30.4456 545.277 31.8101C544.506 33.1745 543.996 34.9249 543.734 37.075C543.472 39.2251 543.334 41.7197 543.334 44.5865V93.1422C543.334 94.8513 543.789 96.1468 544.685 97.0289C545.581 97.911 546.628 98.352 547.827 98.352C549.026 98.352 550.074 97.911 550.97 97.0289C551.865 96.1468 552.32 94.8513 552.32 93.1422V44.5865C552.32 43.3598 552.306 42.271 552.265 41.32C552.237 40.369 552.265 39.5696 552.362 38.9219C552.458 38.2741 552.706 37.7779 553.106 37.4333C553.505 37.0888 554.139 36.9234 554.994 36.9234H563.263C565.923 36.9234 568.211 37.4058 570.141 38.3568C572.071 39.3078 573.559 40.6584 574.62 42.395C575.682 44.1316 576.219 46.199 576.219 48.5834C576.219 50.9678 575.723 53.0351 574.731 54.7717C573.738 56.5083 572.36 57.8452 570.596 58.7549C568.832 59.6783 566.792 60.1331 564.463 60.1331H558.288C561.141 60.1331 563.622 60.4088 565.717 60.9463C567.812 61.4976 569.631 62.2556 571.202 63.248H571.188Z" fill="#E8E6E8"/>
<path d="M45.3995 77.4577C41.5817 68.9815 49.1759 58.6308 58.7134 59.4991C60.0503 58.4792 61.5526 57.3491 63.2341 56.0811C65.1774 54.6063 66.8589 53.3246 68.2922 52.2495C69.9461 50.9953 71.6276 50.1684 73.3229 49.7825C73.6123 49.7135 73.9017 49.6722 74.1912 49.6446C77.7195 25.4701 60.9737 -2.0949 33.96 2.66007C33.5603 2.78411 33.1744 2.89437 32.7747 3.01841C11.9356 9.70293 3.87281 24.4226 1.13009 37.9295C-0.813239 47.4808 -0.193026 57.2664 2.63239 66.4731C10.0336 52.1117 20.9218 39.5421 36.1377 32.8162C37.3919 31.9203 38.7563 31.0658 40.2311 30.2251C42.1193 29.15 44.1591 28.1853 46.3505 27.3308C48.5419 26.4762 50.8712 25.6906 53.3244 25.0015C55.13 24.5191 56.6047 24.6432 57.7486 25.3461C58.8926 26.049 59.6231 27.0138 59.9401 28.2542C60.257 29.4808 60.1054 30.6799 59.4577 31.8376C58.8099 32.9954 57.6384 33.8223 55.9293 34.3047C52.8972 35.0765 50.1407 36.0551 47.6461 37.2266C45.1514 38.3981 42.9324 39.7212 40.9891 41.196C37.888 43.6355 35.545 46.3644 33.9325 49.369C32.3199 52.3874 31.4516 55.5435 31.2862 58.8376C31.1346 62.1316 31.6308 65.4669 32.7747 68.8023C33.9325 72.1515 35.6828 75.3352 38.0534 78.3812C40.4654 81.4822 43.1392 84.032 46.0611 86.0304C48.983 88.0289 52.0427 89.4209 55.254 90.2203C58.4653 91.0197 62.1589 91.193 65.4667 90.4901C65.4943 90.4901 69.5739 89.1257 69.6015 89.1119C61.332 78.3812 48.5281 84.9278 45.3719 77.4715L45.3995 77.4577Z" fill="#F25C05"/>
<path d="M84.0182 72.5925C83.4669 70.9523 82.5572 69.3122 81.2755 67.6721C80.0075 66.032 78.643 64.2954 77.1958 62.4348C76.3551 61.3597 75.6798 60.643 75.1698 60.2709C74.6599 59.8988 74.1913 59.8712 73.7916 60.1744C71.6828 61.7732 69.7671 63.2341 68.0443 64.5297C66.3352 65.8253 64.9846 66.8452 64.0198 67.5894C62.5864 68.6782 61.2081 69.1193 59.8712 68.9125C58.5343 68.7196 57.4731 68.1132 56.6875 67.0933C55.9019 66.0733 55.5711 64.9156 55.7227 63.5787C55.8743 62.2556 56.6599 61.0565 58.0933 59.9677C58.3 59.8161 58.5068 59.6507 58.7135 59.4991C41.5681 57.6109 40.2863 70.2986 44.104 78.7749C47.2602 86.2312 56.6737 89.9171 65.1362 90.3168C68.4164 89.6001 71.5864 88.0702 74.6461 85.7548C77.4439 83.6323 79.5802 81.7303 81.0274 80.035C82.4883 78.3536 83.4255 76.865 83.8528 75.6108C84.2801 74.3428 84.3352 73.3367 84.0182 72.5925Z" fill="#F25C05"/>
<path d="M93.4453 27.9509C93.4453 27.9509 76.5755 -10.2267 33.96 2.65997C60.9737 -2.09499 77.7194 25.4838 74.1911 49.6445C75.6107 49.5067 77.0716 49.8099 78.5739 50.568C80.3794 51.4914 82.2677 53.2142 84.2523 55.7502C85.92 57.8865 87.312 59.6782 88.4422 61.1116C89.5586 62.545 90.4958 63.8957 91.2538 65.1636C91.7224 65.963 92.1497 66.8313 92.5494 67.7272C92.8664 67.0932 93.1696 66.473 93.459 65.8666C101.549 48.9141 93.459 27.9647 93.459 27.9647L93.4453 27.9509Z" fill="#FFCA3A"/>
<path d="M2.61865 66.4732C2.64622 66.5558 2.67378 66.6523 2.70135 66.735C8.39352 85.0106 22.8927 101.908 35.2005 116.324C37.6124 119.15 40.2173 122.03 43.7181 123.312C50.692 125.89 58.3689 121.162 62.9309 115.36C67.4791 109.557 70.3597 102.473 75.6384 97.2908C59.7885 103.314 40.2173 97.8284 29.9356 84.4869C18.124 69.1332 19.5987 45.5651 35.0765 33.5743C35.421 33.3124 35.7794 33.0506 36.1377 32.8025C20.9218 39.5421 10.0199 52.1118 2.61865 66.4732Z" fill="#008CA4"/>
<path d="M66.7061 88.9516C66.0266 89.1653 64.9075 89.1653 64.228 88.9516C58.4325 87.1885 45.4824 79.8335 45.4824 67.3673C45.4824 61.8643 49.684 57.4121 55.8193 57.4121C59.4565 57.4121 63.4486 58.9793 65.4671 61.4013C67.4855 58.9793 70.723 57.4121 74.3402 57.4121C80.4755 57.4121 85.4517 61.8643 85.4517 67.3673C85.4517 79.8335 72.5016 87.1885 66.7061 88.9516Z" fill="#E8E6E8" stroke="#E8E6E8" stroke-width="1.5" stroke-linecap="round" stroke-linejoin="round"/>
</g>
<defs>
<clipPath id="clip0_58_2826">
<rect width="592" height="124.043" fill="white"/>
</clipPath>
</defs>
</svg>
