<svg width="190" height="191" viewBox="0 0 190 191" fill="none" xmlns="http://www.w3.org/2000/svg">
<g filter="url(#filter0_d_528_4706)">
<circle opacity="0.2" cx="85" cy="85.1528" r="85" fill="#07053F"/>
<path d="M81.0437 53.6289C65.5031 53.6289 52.8613 66.2707 52.8613 81.8112C52.8613 97.3518 65.5031 109.994 81.0437 109.994C85.7944 109.994 90.4646 108.866 94.4102 106.692C94.7262 107.073 95.0766 107.423 95.4569 107.739L103.509 115.791C104.253 116.628 105.159 117.304 106.173 117.777C107.188 118.251 108.288 118.512 109.407 118.545C110.525 118.578 111.639 118.382 112.679 117.969C113.719 117.556 114.664 116.934 115.456 116.143C116.247 115.351 116.869 114.406 117.282 113.366C117.695 112.326 117.891 111.212 117.858 110.094C117.825 108.975 117.564 107.875 117.09 106.86C116.617 105.846 115.941 104.94 115.104 104.196L107.052 96.144C106.66 95.7516 106.228 95.4008 105.764 95.0972C107.938 91.1517 109.307 86.562 109.307 81.7307C109.307 66.1901 96.6648 53.5483 81.1242 53.5483L81.0437 53.6289ZM81.0437 61.681C92.2361 61.681 101.174 70.6188 101.174 81.8112C101.174 87.1256 99.2414 92.0374 95.8596 95.6608C95.779 95.7413 95.6985 95.8219 95.618 95.9024C95.2377 96.2184 94.8873 96.5688 94.5712 96.9492C91.0283 100.17 86.197 102.022 80.9632 102.022C69.7707 102.022 60.8329 93.0842 60.8329 81.8917C60.8329 70.6993 69.7707 61.7615 80.9632 61.7615L81.0437 61.681Z" fill="#F25C05"/>
</g>
<defs>
<filter id="filter0_d_528_4706" x="0" y="0.152832" width="190" height="190" filterUnits="userSpaceOnUse" color-interpolation-filters="sRGB">
<feFlood flood-opacity="0" result="BackgroundImageFix"/>
<feColorMatrix in="SourceAlpha" type="matrix" values="0 0 0 0 0 0 0 0 0 0 0 0 0 0 0 0 0 0 127 0" result="hardAlpha"/>
<feOffset dx="10" dy="10"/>
<feGaussianBlur stdDeviation="5"/>
<feComposite in2="hardAlpha" operator="out"/>
<feColorMatrix type="matrix" values="0 0 0 0 0 0 0 0 0 0 0 0 0 0 0 0 0 0 0.25 0"/>
<feBlend mode="normal" in2="BackgroundImageFix" result="effect1_dropShadow_528_4706"/>
<feBlend mode="normal" in="SourceGraphic" in2="effect1_dropShadow_528_4706" result="shape"/>
</filter>
</defs>
</svg>
