<svg width="462" height="453" viewBox="0 0 462 453" fill="none" xmlns="http://www.w3.org/2000/svg">
<g clip-path="url(#clip0_889_1441)">
<path d="M97.9698 90.9108C98.7198 85.4708 91.0398 80.9908 85.2698 80.5308C82.5198 80.3108 79.6598 80.7308 77.0498 79.8208C71.3998 77.8508 69.1498 70.5508 63.6298 68.2308C59.5098 66.4908 54.7698 68.0408 50.7698 70.0508C46.7798 72.0608 42.8298 74.5908 38.3598 74.8808C34.4798 75.1308 30.2598 73.6908 26.8698 75.5908C24.3398 77.0008 23.0098 79.9208 20.6798 81.6408C18.3998 83.3208 15.4198 83.6808 12.5898 83.8308C9.75982 83.9808 6.82982 84.0108 4.24982 85.1908C1.66982 86.3708 -0.460184 89.1008 0.0698156 91.8808L97.9598 90.9108H97.9698Z" fill="#E6E6E6"/>
<path d="M343.64 9.94044C349.29 3.35044 363.96 7.49044 374.02 12.8804C374.02 12.8804 380.94 16.1404 383.52 17.8404C383.55 17.8404 383.57 17.8504 383.6 17.8604L407.12 14.9204C409.03 14.6804 410.97 15.0204 412.68 15.9004L414.61 16.8804C415.58 17.3804 415.54 18.7804 414.53 19.2104L397.22 26.6104C397.22 26.7104 397.22 26.7304 397.2 26.8204C406.41 32.8704 414.29 38.0504 414.29 38.0504C414.37 38.1104 414.46 38.1604 414.55 38.2204C417.77 40.2804 421.65 41.0604 425.43 40.3804L434.58 38.7404C435.04 38.6604 435.53 38.6804 435.97 38.8604C437.6 39.5304 437.91 41.6604 436.58 42.7804L425.98 51.6404C424.32 53.0304 422.01 53.3404 420.04 52.4304L415.08 50.1404L389.96 38.1804L392.84 52.4804C392.95 53.0704 392.48 53.6104 391.88 53.5804L390.7 53.5404C389.08 53.4804 387.6 52.5904 386.79 51.1804L376.67 31.8504L347.03 17.7404C343.08 15.9204 341.67 12.5304 343.64 9.93044V9.94044Z" fill="#E6E6E6"/>
<path d="M141.839 17.3104C142.349 13.5904 137.099 10.5304 133.149 10.2104C131.269 10.0604 129.309 10.3504 127.529 9.72039C123.669 8.37039 122.119 3.38039 118.359 1.79039C115.539 0.60039 112.299 1.66039 109.569 3.03039C106.839 4.40039 104.139 6.14039 101.089 6.33039C98.4395 6.50039 95.5495 5.52039 93.2295 6.81039C91.4995 7.78039 90.5895 9.77039 88.9995 10.9504C87.4395 12.1004 85.3995 12.3404 83.4695 12.4504C81.5295 12.5604 79.5295 12.5704 77.7695 13.3804C76.0095 14.1904 74.5495 16.0504 74.9095 17.9604L141.849 17.3004L141.839 17.3104Z" fill="#E6E6E6"/>
<path d="M367.1 351.08C367 351.21 366.13 350.69 365.17 349.92C364.2 349.15 363.51 348.42 363.61 348.29C363.71 348.16 364.58 348.68 365.54 349.45C366.5 350.22 367.2 350.95 367.1 351.08Z" fill="#BFBFBF"/>
<path d="M393.42 311.74C393.58 308.06 393.68 304.29 392.52 300.8C391.36 297.31 388.67 294.1 385.06 293.35C380.95 292.5 376.73 295.09 374.43 298.6C372.13 302.11 371.33 306.37 370.65 310.52C365.96 339.07 364.23 368.11 365.49 397.02L382.32 399.38C389.71 369.19 392.07 342.79 393.41 311.74H393.42Z" fill="#095A33"/>
<path d="M382.73 293.221C382.73 293.221 382.71 293.321 382.65 293.491C382.58 293.701 382.48 293.951 382.37 294.251C382.1 294.961 381.72 295.931 381.25 297.161C381.02 297.791 380.7 298.481 380.45 299.261C380.2 300.051 379.93 300.901 379.63 301.811C379.33 302.731 379.02 303.701 378.69 304.741C378.42 305.801 378.13 306.911 377.82 308.081C376.55 312.741 375.5 318.411 374.57 324.731C373.66 331.061 373.06 338.071 372.59 345.431C371.73 360.171 371.6 373.551 371.22 383.231C371.04 388.071 370.87 391.981 370.69 394.691C370.6 396.001 370.53 397.041 370.48 397.801C370.45 398.131 370.43 398.391 370.41 398.611C370.39 398.791 370.38 398.881 370.37 398.881C370.36 398.881 370.35 398.791 370.35 398.601C370.35 398.381 370.35 398.111 370.36 397.791C370.38 397.031 370.42 395.991 370.46 394.671C370.57 391.971 370.67 388.051 370.8 383.211C371.07 373.531 371.14 360.151 372 345.381C372.47 338.001 373.09 330.981 374.03 324.641C374.99 318.301 376.09 312.621 377.42 307.961C377.74 306.791 378.04 305.681 378.33 304.621C378.68 303.591 379.01 302.611 379.32 301.701C379.63 300.791 379.92 299.941 380.19 299.161C380.46 298.381 380.79 297.701 381.04 297.071C381.56 295.861 381.97 294.901 382.27 294.201C382.4 293.901 382.51 293.661 382.6 293.461C382.68 293.291 382.72 293.211 382.73 293.221Z" fill="#BFBFBF"/>
<path d="M384.29 293.23C384.29 293.23 385.32 294.29 386.35 296.71C387.41 299.11 388.07 302.93 387.88 307.6C387.43 316.9 386.6 329.71 385.49 343.86C384.38 358.01 383.14 370.8 382.15 380.04C381.65 384.66 381.22 388.4 380.91 390.98C380.75 392.23 380.62 393.22 380.53 393.95C380.48 394.26 380.45 394.51 380.42 394.72C380.39 394.89 380.37 394.98 380.36 394.98C380.35 394.98 380.35 394.89 380.36 394.71C380.37 394.5 380.39 394.24 380.41 393.93C380.48 393.2 380.57 392.2 380.68 390.95C380.93 388.31 381.29 384.58 381.73 379.99C382.61 370.74 383.78 357.95 384.89 343.8C386 329.66 386.9 316.85 387.45 307.58C387.69 302.95 387.1 299.19 386.12 296.8C385.18 294.39 384.21 293.28 384.28 293.23H384.29Z" fill="#BFBFBF"/>
<path d="M395.95 336.78C395.89 336.94 394.47 336.57 392.76 335.96C391.05 335.35 389.72 334.73 389.77 334.57C389.83 334.41 391.25 334.781 392.96 335.391C394.66 336.001 396 336.62 395.95 336.78Z" fill="#BFBFBF"/>
<path d="M397.98 319.63C398.05 319.78 396.69 320.54 394.95 321.32C393.21 322.1 391.74 322.61 391.67 322.46C391.6 322.31 392.96 321.55 394.7 320.77C396.44 319.99 397.91 319.48 397.98 319.63Z" fill="#BFBFBF"/>
<path d="M396.93 305.64C396.92 305.81 395.8 305.86 394.42 305.77C393.05 305.68 391.94 305.46 391.95 305.3C391.96 305.13 393.08 305.08 394.46 305.17C395.83 305.26 396.94 305.48 396.93 305.64Z" fill="#BFBFBF"/>
<path d="M379.57 296.67C379.43 296.76 378.69 295.84 377.92 294.62C377.15 293.4 376.64 292.34 376.78 292.25C376.92 292.16 377.66 293.08 378.43 294.3C379.2 295.52 379.71 296.58 379.57 296.67Z" fill="#BFBFBF"/>
<path d="M373.83 305.13C373.83 305.3 372.76 305.41 371.44 305.38C370.12 305.35 369.06 305.19 369.06 305.03C369.06 304.86 370.13 304.75 371.45 304.78C372.77 304.81 373.83 304.97 373.83 305.13Z" fill="#BFBFBF"/>
<path d="M369.71 322.06C369.65 322.21 368.52 321.9 367.2 321.37C365.87 320.83 364.85 320.28 364.91 320.12C364.97 319.97 366.1 320.28 367.42 320.81C368.75 321.34 369.77 321.9 369.71 322.06Z" fill="#BFBFBF"/>
<path d="M369.27 336.31C369.3 336.47 368.35 336.81 367.13 337.07C365.91 337.33 364.9 337.4 364.87 337.24C364.84 337.08 365.79 336.74 367.01 336.48C368.23 336.22 369.24 336.15 369.27 336.31Z" fill="#BFBFBF"/>
<path d="M367.33 359.6C367.36 359.76 366.34 360.08 365.06 360.31C363.78 360.54 362.71 360.59 362.68 360.43C362.65 360.27 363.67 359.95 364.95 359.72C366.23 359.49 367.3 359.44 367.33 359.6Z" fill="#BFBFBF"/>
<path d="M366.04 372.46C366.12 372.61 365.27 373.21 364.15 373.8C363.03 374.39 362.05 374.76 361.97 374.61C361.89 374.46 362.74 373.86 363.87 373.27C364.99 372.68 365.97 372.31 366.05 372.46H366.04Z" fill="#BFBFBF"/>
<path d="M376.54 387.05C376.4 387.13 375.66 386.11 374.89 384.77C374.12 383.43 373.62 382.27 373.76 382.19C373.9 382.11 374.64 383.13 375.41 384.47C376.18 385.81 376.68 386.97 376.54 387.05Z" fill="#BFBFBF"/>
<path d="M379.571 362.8C379.691 362.92 378.861 363.91 377.731 365.02C376.601 366.13 375.591 366.93 375.471 366.82C375.351 366.7 376.181 365.71 377.311 364.6C378.441 363.49 379.451 362.69 379.571 362.8Z" fill="#BFBFBF"/>
<path d="M378.9 350.07C378.78 350.18 378.01 349.56 377.19 348.67C376.37 347.78 375.8 346.97 375.92 346.86C376.04 346.75 376.81 347.37 377.63 348.26C378.45 349.15 379.02 349.96 378.9 350.07Z" fill="#BFBFBF"/>
<path d="M380.99 333.81C381.11 333.92 380.431 334.89 379.461 335.97C378.491 337.05 377.601 337.84 377.481 337.73C377.361 337.62 378.041 336.65 379.011 335.57C379.981 334.49 380.87 333.7 380.99 333.81Z" fill="#BFBFBF"/>
<path d="M382.16 322.011C382.04 322.131 381.09 321.381 380.02 320.331C378.95 319.281 378.19 318.341 378.3 318.221C378.42 318.101 379.37 318.851 380.44 319.901C381.51 320.951 382.27 321.891 382.16 322.011Z" fill="#BFBFBF"/>
<path d="M384.46 306.061C384.6 306.151 384.12 307.211 383.39 308.451C382.65 309.681 381.94 310.621 381.8 310.531C381.66 310.451 382.14 309.381 382.87 308.141C383.61 306.911 384.32 305.971 384.46 306.061Z" fill="#BFBFBF"/>
<path d="M388.8 291.28C388.95 291.36 388.52 292.43 387.85 293.67C387.18 294.91 386.52 295.85 386.37 295.77C386.22 295.69 386.65 294.62 387.32 293.38C387.99 292.14 388.65 291.2 388.8 291.28Z" fill="#BFBFBF"/>
<path d="M393.71 297.99C393.78 298.14 393.11 298.61 392.21 299.04C391.31 299.47 390.52 299.7 390.45 299.55C390.38 299.4 391.05 298.93 391.95 298.5C392.85 298.07 393.64 297.84 393.71 297.99Z" fill="#BFBFBF"/>
<path d="M393.83 351.08C393.8 351.24 392.27 351.03 390.54 350.28C388.8 349.54 387.6 348.59 387.69 348.46C387.78 348.32 389.1 349.02 390.78 349.73C392.46 350.45 393.88 350.91 393.84 351.08H393.83Z" fill="#BFBFBF"/>
<path d="M391.82 362.33C391.85 362.49 390.84 362.83 389.56 363.07C388.28 363.32 387.21 363.39 387.18 363.22C387.15 363.06 388.16 362.72 389.44 362.48C390.72 362.23 391.79 362.16 391.82 362.33Z" fill="#BFBFBF"/>
<path d="M389.35 381.61C389.25 381.74 387.97 380.85 386.79 379.36C385.6 377.87 385.04 376.42 385.18 376.35C385.33 376.27 386.11 377.55 387.26 378.98C388.39 380.42 389.46 381.47 389.35 381.6V381.61Z" fill="#BFBFBF"/>
<path d="M362.3 390.42C362.19 390.29 362.88 389.53 363.83 388.72C364.78 387.91 365.64 387.35 365.75 387.48C365.86 387.61 365.17 388.37 364.22 389.18C363.27 389.99 362.41 390.55 362.3 390.42Z" fill="#BFBFBF"/>
<path d="M354.53 348.34C353.44 344.92 351.38 340.93 347.79 340.88C345.66 340.85 343.74 342.38 342.74 344.26C341.74 346.14 341.31 348.32 341.38 350.45C341.79 364.52 344.23 380.61 349.1 395.27H362.24C362.07 378.99 359.5 363.85 354.54 348.34H354.53Z" fill="#095A33"/>
<path d="M330.77 326.821C328.93 319.481 323.46 315.511 317.09 315.141C311.28 316.161 309.03 321.881 308.34 327.731C307.65 333.581 309.47 339.411 311.26 345.031C317.02 363.061 322.79 381.091 328.55 399.121C334 398.531 339.45 397.931 344.89 397.341C339.72 373.181 336.75 350.791 330.75 326.831L330.77 326.821Z" fill="#095A33"/>
<path d="M347.791 340.891C347.851 340.931 347.251 341.481 346.681 342.751C346.111 344.021 345.841 346.061 346.071 348.561C346.321 351.061 346.611 354.061 347.031 357.361C347.461 360.661 348.051 364.281 348.791 368.051C350.281 375.601 351.951 382.371 353.011 387.311C353.551 389.781 353.95 391.781 354.21 393.171C354.32 393.811 354.411 394.341 354.481 394.771C354.541 395.141 354.561 395.331 354.541 395.341C354.521 395.341 354.461 395.161 354.371 394.801C354.271 394.371 354.14 393.851 353.99 393.221C353.64 391.761 353.171 389.791 352.601 387.411C351.431 382.501 349.691 375.741 348.201 368.171C347.461 364.391 346.881 360.751 346.481 357.431C346.271 355.771 346.131 354.191 346.001 352.711C345.881 351.241 345.721 349.861 345.651 348.591C345.471 346.061 345.821 343.941 346.481 342.661C347.141 341.381 347.811 340.901 347.811 340.901L347.791 340.891Z" fill="#BFBFBF"/>
<path d="M317.33 314.67C317.39 314.72 316.46 315.5 315.36 317.32C314.26 319.12 313.09 322.07 312.87 325.87C312.62 329.67 313.47 334.19 314.89 339.03C316.33 343.89 317.9 349.23 319.55 354.83C322.81 366.03 325.76 376.17 327.92 383.58C328.95 387.22 329.79 390.19 330.39 392.31C330.66 393.3 330.87 394.09 331.03 394.69C331.17 395.24 331.23 395.53 331.21 395.53C331.19 395.53 331.09 395.26 330.91 394.72C330.72 394.13 330.47 393.35 330.16 392.37C329.51 390.26 328.61 387.31 327.51 383.69C325.31 376.29 322.3 366.17 318.98 354.99C317.34 349.38 315.78 344.04 314.36 339.17C312.96 334.3 312.14 329.71 312.45 325.83C312.72 321.96 313.98 318.98 315.16 317.18C316.35 315.36 317.33 314.65 317.33 314.65V314.67Z" fill="#BFBFBF"/>
<path d="M341.34 395.58C341.34 395.58 341.19 395.32 340.97 394.8C340.76 394.28 340.41 393.51 340.04 392.5C339.26 390.49 338.26 387.53 337.23 383.82C336.19 380.11 335.17 375.63 334.18 370.64C333.23 365.64 332.19 360.15 331.1 354.38C329.96 348.63 328.7 343.18 327.23 338.32C325.76 333.46 324.12 329.19 322.46 325.73C320.81 322.27 319.24 319.58 318.05 317.79C317.49 316.87 316.98 316.21 316.67 315.74C316.35 315.27 316.2 315.02 316.21 315C316.23 314.99 316.42 315.22 316.76 315.66C317.1 316.12 317.64 316.76 318.23 317.66C319.48 319.42 321.12 322.09 322.82 325.55C324.54 329.01 326.23 333.29 327.73 338.17C329.24 343.04 330.52 348.51 331.66 354.27C332.73 360.04 333.76 365.53 334.69 370.54C335.65 375.53 336.62 380 337.6 383.72C338.58 387.43 339.51 390.4 340.22 392.43C340.55 393.45 340.87 394.23 341.04 394.76C341.23 395.29 341.32 395.58 341.3 395.59L341.34 395.58Z" fill="#BFBFBF"/>
<path d="M311.56 342.33C311.6 342.49 310.71 342.85 309.57 343.12C308.43 343.4 307.48 343.49 307.44 343.33C307.4 343.17 308.29 342.81 309.43 342.54C310.57 342.26 311.52 342.17 311.56 342.33Z" fill="#BFBFBF"/>
<path d="M309.83 331.17C309.83 331.34 308.59 331.41 307.07 331.47C305.56 331.53 304.32 331.56 304.3 331.39C304.28 331.23 305.5 330.93 307.05 330.87C308.59 330.81 309.84 331.01 309.83 331.17Z" fill="#BFBFBF"/>
<path d="M311.67 320.98C311.56 321.11 310.67 320.53 309.69 319.69C308.7 318.85 307.99 318.07 308.1 317.94C308.21 317.81 309.1 318.39 310.08 319.23C311.07 320.07 311.78 320.85 311.67 320.98Z" fill="#BFBFBF"/>
<path d="M316.65 311.55C316.82 311.59 316.77 312.38 316.75 313.34C316.72 314.3 316.72 315.1 316.55 315.12C316.39 315.15 316.12 314.35 316.15 313.32C316.18 312.29 316.5 311.51 316.66 311.55H316.65Z" fill="#BFBFBF"/>
<path d="M326.84 316C326.98 316.1 326.58 316.9 325.95 317.8C325.32 318.7 324.7 319.35 324.57 319.25C324.43 319.15 324.83 318.35 325.46 317.45C326.09 316.55 326.71 315.9 326.84 316Z" fill="#BFBFBF"/>
<path d="M333.451 327.48C333.511 327.63 332.671 328.12 331.561 328.58C330.451 329.03 329.511 329.27 329.441 329.12C329.381 328.97 330.221 328.48 331.331 328.02C332.441 327.57 333.381 327.33 333.451 327.48Z" fill="#BFBFBF"/>
<path d="M337.47 339.3C337.54 339.45 336.42 340.09 334.88 340.43C333.34 340.78 332.06 340.69 332.05 340.53C332.05 340.36 333.27 340.18 334.74 339.85C336.21 339.52 337.4 339.15 337.46 339.31L337.47 339.3Z" fill="#BFBFBF"/>
<path d="M319.05 335.94C318.89 335.89 319.01 335.07 319.31 334.12C319.61 333.16 319.98 332.43 320.14 332.48C320.3 332.53 320.18 333.35 319.88 334.3C319.58 335.26 319.21 335.99 319.05 335.94Z" fill="#BFBFBF"/>
<path d="M321.62 350.78C321.47 350.71 321.8 349.61 322.36 348.32C322.92 347.03 323.5 346.04 323.65 346.1C323.8 346.17 323.47 347.27 322.91 348.56C322.35 349.85 321.77 350.84 321.62 350.78Z" fill="#BFBFBF"/>
<path d="M315.27 354.84C315.21 355 314.17 354.71 312.92 354.32C311.67 353.93 310.65 353.57 310.69 353.4C310.72 353.24 311.82 353.34 313.1 353.74C314.38 354.14 315.34 354.68 315.27 354.83V354.84Z" fill="#BFBFBF"/>
<path d="M318.93 366.94C319.03 367.08 318.33 367.74 317.37 368.43C316.41 369.12 315.55 369.56 315.46 369.43C315.36 369.29 316.06 368.63 317.02 367.94C317.98 367.26 318.84 366.81 318.93 366.94Z" fill="#BFBFBF"/>
<path d="M321.87 379C321.91 379.16 321.04 379.51 319.94 379.78C318.83 380.05 317.9 380.14 317.86 379.98C317.82 379.82 318.69 379.47 319.79 379.2C320.9 378.93 321.83 378.84 321.87 379Z" fill="#BFBFBF"/>
<path d="M337.79 349.38C337.87 349.52 337.13 350.11 336.05 350.51C334.97 350.92 334.03 350.96 334 350.8C333.97 350.63 334.82 350.33 335.84 349.94C336.87 349.56 337.7 349.22 337.79 349.37V349.38Z" fill="#BFBFBF"/>
<path d="M340.06 368.14C339.99 368.29 339.11 368.02 338.09 367.54C337.07 367.06 336.3 366.55 336.38 366.4C336.45 366.25 337.33 366.52 338.35 367C339.37 367.48 340.14 367.99 340.06 368.14Z" fill="#BFBFBF"/>
<path d="M344.08 381.57C344.02 381.72 342.85 381.41 341.48 380.87C340.1 380.33 339.04 379.77 339.1 379.61C339.16 379.46 340.33 379.77 341.7 380.31C343.08 380.85 344.14 381.41 344.08 381.57Z" fill="#BFBFBF"/>
<path d="M322.51 392.09C322.43 391.94 323.5 391.22 324.74 390.24C325.98 389.27 326.94 388.4 327.06 388.51C327.18 388.61 326.4 389.7 325.11 390.71C323.82 391.72 322.58 392.23 322.51 392.09Z" fill="#BFBFBF"/>
<path d="M333.13 385.26C332.96 385.28 332.73 384.38 332.32 383.33C331.92 382.28 331.48 381.46 331.62 381.36C331.75 381.26 332.44 381.98 332.88 383.12C333.32 384.25 333.29 385.25 333.13 385.27V385.26Z" fill="#BFBFBF"/>
<path d="M330.31 369.11C330.21 369.24 329.53 368.92 328.78 368.38C328.03 367.84 327.5 367.3 327.6 367.16C327.7 367.03 328.38 367.35 329.13 367.89C329.88 368.43 330.41 368.97 330.31 369.11Z" fill="#BFBFBF"/>
<path d="M355.06 343.8C355.16 343.93 354.49 344.59 353.57 345.27C352.65 345.95 351.82 346.39 351.72 346.26C351.62 346.13 352.29 345.47 353.21 344.79C354.13 344.11 354.96 343.67 355.06 343.8Z" fill="#BFBFBF"/>
<path d="M358.79 354C358.81 354.16 357.76 354.38 356.47 354.24C355.18 354.1 354.2 353.66 354.25 353.51C354.3 353.35 355.3 353.51 356.53 353.64C357.76 353.78 358.78 353.83 358.79 354Z" fill="#BFBFBF"/>
<path d="M342.76 356.29C342.8 356.45 341.83 356.8 340.58 356.88C339.33 356.97 338.32 356.75 338.34 356.59C338.35 356.42 339.34 356.36 340.54 356.28C341.74 356.2 342.73 356.13 342.76 356.29Z" fill="#BFBFBF"/>
<path d="M344.13 346.65C344.12 346.81 343.14 346.84 342.07 346.34C341 345.85 340.38 345.09 340.49 344.98C340.61 344.85 341.34 345.35 342.32 345.8C343.29 346.25 344.15 346.49 344.13 346.66V346.65Z" fill="#BFBFBF"/>
<path d="M360.17 364.95C360.08 365.09 359.08 364.62 357.93 363.9C356.78 363.18 355.92 362.48 356.01 362.34C356.1 362.2 357.1 362.67 358.25 363.39C359.4 364.11 360.26 364.81 360.17 364.95Z" fill="#BFBFBF"/>
<path d="M399.29 393.561H313.75V408.721H399.29V393.561Z" fill="#FBCCB2"/>
<path d="M320.14 405.711L330.54 451.021H381.52L392.9 405.711H320.14Z" fill="#FBCCB2"/>
<path d="M399.24 408.741C399.24 408.911 379.95 409.041 356.15 409.041C332.35 409.041 313.06 408.911 313.06 408.741C313.06 408.571 332.35 408.441 356.15 408.441C379.95 408.441 399.24 408.571 399.24 408.741Z" fill="#E6E6E6"/>
<path d="M351.671 356.62C351.531 356.71 350.94 356.03 350.36 355.1C349.78 354.17 349.42 353.35 349.56 353.26C349.7 353.17 350.29 353.85 350.87 354.78C351.45 355.71 351.811 356.53 351.671 356.62Z" fill="#BFBFBF"/>
<path d="M351.7 368.82C351.54 368.77 351.74 367.74 352.15 366.52C352.55 365.3 353.01 364.36 353.17 364.41C353.33 364.46 353.13 365.49 352.72 366.71C352.32 367.93 351.86 368.87 351.7 368.82Z" fill="#BFBFBF"/>
<path d="M355.88 381.62C355.73 381.69 355.09 380.67 354.45 379.33C353.81 378 353.42 376.86 353.56 376.78C353.71 376.71 354.35 377.73 354.99 379.07C355.63 380.4 356.02 381.54 355.88 381.62Z" fill="#BFBFBF"/>
<path d="M346.84 391.92C346.71 391.81 347.22 391.02 347.98 390.15C348.74 389.28 349.45 388.66 349.57 388.77C349.7 388.88 349.19 389.67 348.43 390.54C347.68 391.41 346.96 392.03 346.84 391.92Z" fill="#BFBFBF"/>
<path d="M344.95 373.221C344.92 373.381 344.1 373.371 343.11 373.201C342.12 373.031 341.35 372.751 341.38 372.591C341.41 372.431 342.23 372.441 343.22 372.611C344.21 372.781 344.98 373.061 344.95 373.221Z" fill="#BFBFBF"/>
<path d="M336.33 70.0068L454.986 101.446C459.5 102.642 462.203 107.279 461.004 111.802L418.711 271.425C417.515 275.939 412.878 278.641 408.354 277.443L289.698 246.004L336.33 70.0068Z" fill="#100B8C"/>
<path d="M379.51 210.58C377.2 210.58 374.88 210.28 372.59 209.67C365.4 207.76 359.41 203.06 355.74 196.42C352.07 189.8 351.14 182.04 353.11 174.58C357.2 159.17 372.59 149.82 387.41 153.75C394.6 155.66 400.59 160.36 404.26 167C407.93 173.62 408.86 181.38 406.89 188.84C404.91 196.3 400.26 202.58 393.79 206.51C389.37 209.2 384.46 210.58 379.51 210.58ZM380.54 154.86C368.98 154.86 358.26 162.96 355.04 175.1C353.2 182.06 354.06 189.29 357.48 195.46C360.89 201.62 366.44 205.98 373.1 207.74C379.76 209.51 386.74 208.46 392.75 204.81C398.78 201.15 403.11 195.29 404.95 188.34C406.79 181.38 405.93 174.15 402.51 167.98C399.1 161.82 393.55 157.46 386.89 155.7C384.77 155.14 382.64 154.87 380.53 154.87L380.54 154.86Z" fill="white"/>
<path d="M354.098 173.072L353.586 175.005L405.785 188.835L406.297 186.902L354.098 173.072Z" fill="white"/>
<path d="M385.453 154.319L371.154 208.246L373.087 208.759L387.386 154.832L385.453 154.319Z" fill="white"/>
<path d="M372.55 209.25L371.59 207.49C379.05 203.44 384.23 199.38 387.92 194.72C392.34 189.14 394.91 180.79 394.32 173.95C393.73 166.99 389.71 160.7 386.16 155.14L387.85 154.06C391.52 159.81 395.68 166.33 396.32 173.78C396.96 181.21 394.28 189.92 389.49 195.97C384.42 202.38 377.39 206.62 372.54 209.26L372.55 209.25Z" fill="white"/>
<path d="M371.309 209.08C367.369 203.45 363.569 197.18 362.399 189.48C361.239 181.86 363.219 172.97 367.459 166.82C371.689 160.68 379.249 156.71 385.319 153.51L386.249 155.28C380.369 158.37 373.059 162.22 369.109 167.96C365.209 173.62 363.309 182.15 364.379 189.18C365.489 196.47 369.159 202.5 372.959 207.93L371.319 209.08H371.309Z" fill="white"/>
<path d="M397.079 172.33C384.649 172.33 372.299 168.37 362.229 161L363.409 159.39C375.269 168.07 390.409 171.86 404.969 169.78L405.249 171.76C402.539 172.15 399.809 172.34 397.079 172.34V172.33Z" fill="white"/>
<path d="M396.23 203.9C383 194.22 367.8 189.75 354.5 191.65L354.22 189.67C368.02 187.69 383.76 192.29 397.41 202.28L396.23 203.89V203.9Z" fill="white"/>
<path d="M298.86 247.23C298.72 247.19 309.02 207.9 321.85 159.47C334.69 111.03 345.21 71.7996 345.35 71.8396C345.49 71.8796 335.2 111.16 322.36 159.6C309.53 208.02 299.01 247.26 298.87 247.22L298.86 247.23Z" fill="#060431"/>
<path d="M397.98 251.61C397.94 251.75 382.68 247.82 363.89 242.84C345.1 237.86 329.9 233.71 329.93 233.57C329.97 233.43 345.23 237.35 364.02 242.34C382.81 247.32 398.01 251.47 397.97 251.61H397.98Z" fill="white"/>
<path d="M387.88 255.84C387.84 255.98 376.51 253.1 362.57 249.4C348.62 245.7 337.35 242.6 337.39 242.46C337.43 242.32 348.76 245.2 362.7 248.9C376.64 252.6 387.92 255.7 387.88 255.84Z" fill="white"/>
<path d="M367.85 118.72C367.29 120.85 365.5 121.79 363.22 121.19L361.76 120.8L361.11 123.25L358.74 122.62L361.22 113.26L365.05 114.27C367.33 114.88 368.42 116.58 367.85 118.72ZM365.46 118.09C365.69 117.22 365.34 116.58 364.35 116.32L363.03 115.97L362.3 118.71L363.62 119.06C364.6 119.32 365.23 118.94 365.45 118.09H365.46Z" fill="white"/>
<path d="M373.121 124.48L369.581 123.54L368.441 125.19L366.021 124.55L372.201 116.17L374.531 116.79L375.761 127.14L373.301 126.49L373.121 124.5V124.48ZM372.941 122.34L372.661 119.06L370.791 121.77L372.941 122.34Z" fill="white"/>
<path d="M376.07 126.31L377.36 124.56C377.96 125.31 378.91 125.96 379.88 126.22C380.86 126.48 381.32 126.27 381.44 125.82C381.83 124.34 376.79 124.16 377.71 120.68C378.15 119.01 379.74 117.97 382.22 118.63C383.31 118.92 384.36 119.5 385.04 120.25L383.79 122.02C383.12 121.33 382.39 120.88 381.66 120.68C380.67 120.42 380.21 120.7 380.09 121.16C379.71 122.59 384.74 122.78 383.83 126.23C383.4 127.86 381.81 128.93 379.32 128.27C377.94 127.91 376.69 127.13 376.07 126.31Z" fill="white"/>
<path d="M383.811 128.36L385.101 126.61C385.701 127.36 386.651 128.01 387.621 128.27C388.601 128.53 389.061 128.32 389.181 127.87C389.571 126.39 384.531 126.21 385.451 122.73C385.891 121.06 387.481 120.02 389.961 120.68C391.051 120.97 392.101 121.55 392.781 122.3L391.531 124.07C390.861 123.38 390.131 122.93 389.401 122.73C388.411 122.47 387.951 122.75 387.831 123.22C387.451 124.65 392.481 124.84 391.571 128.29C391.141 129.92 389.551 130.99 387.061 130.33C385.691 129.97 384.431 129.19 383.811 128.36Z" fill="white"/>
<path d="M401.03 127.52C400.47 129.65 398.68 130.59 396.4 129.99L394.94 129.6L394.29 132.05L391.92 131.42L394.4 122.05L398.23 123.06C400.51 123.67 401.6 125.37 401.03 127.51V127.52ZM398.64 126.89C398.87 126.02 398.51 125.38 397.53 125.12L396.21 124.77L395.48 127.51L396.8 127.86C397.78 128.12 398.41 127.74 398.63 126.89H398.64Z" fill="white"/>
<path d="M401.55 128.96C402.29 126.15 404.81 124.61 407.49 125.32C410.17 126.03 411.6 128.61 410.85 131.42C410.11 134.23 407.58 135.77 404.9 135.06C402.22 134.35 400.79 131.77 401.54 128.96H401.55ZM408.46 130.79C408.89 129.17 408.18 127.85 406.91 127.52C405.64 127.18 404.37 127.98 403.94 129.6C403.51 131.22 404.22 132.54 405.49 132.87C406.76 133.21 408.03 132.41 408.46 130.79Z" fill="white"/>
<path d="M415.19 134.92L413.9 134.58L413.24 137.07L410.87 136.44L413.35 127.08L417.18 128.09C419.46 128.7 420.55 130.4 419.98 132.54C419.61 133.92 418.75 134.78 417.56 135.06L418.59 138.48L416.05 137.81L415.19 134.92ZM416.48 130.14L415.16 129.79L414.43 132.53L415.75 132.88C416.73 133.14 417.36 132.76 417.58 131.91C417.81 131.04 417.45 130.4 416.47 130.14H416.48Z" fill="white"/>
<path d="M423.31 131.96L420.74 131.28L421.3 129.18L428.8 131.17L428.24 133.27L425.68 132.59L423.75 139.85L421.38 139.22L423.31 131.96Z" fill="white"/>
<path d="M373.431 107.11C373.391 107.25 370.951 106.72 367.971 105.93C364.991 105.14 362.611 104.39 362.651 104.25C362.691 104.11 365.131 104.64 368.111 105.43C371.091 106.22 373.471 106.97 373.431 107.11Z" fill="white"/>
<path d="M372.42 109.79C372.38 109.93 370 109.42 367.1 108.65C364.2 107.88 361.88 107.15 361.91 107.01C361.95 106.87 364.33 107.38 367.23 108.15C370.13 108.92 372.45 109.65 372.42 109.79Z" fill="white"/>
<path d="M429.21 121.89C429.17 122.03 426.73 121.5 423.75 120.71C420.77 119.92 418.39 119.17 418.43 119.03C418.47 118.89 420.91 119.42 423.89 120.21C426.87 121 429.25 121.75 429.21 121.89Z" fill="white"/>
<path d="M428.21 124.58C428.17 124.72 425.79 124.21 422.89 123.44C419.99 122.67 417.67 121.94 417.7 121.8C417.74 121.66 420.12 122.17 423.02 122.94C425.92 123.71 428.24 124.44 428.21 124.58Z" fill="white"/>
<path d="M426.5 198.19C426.5 198.19 422.76 205.07 415.16 201.25C415.16 201.25 419.46 194.42 426.5 198.19Z" fill="white"/>
<path d="M419.66 208.29C419.66 208.29 414.51 212.81 409.42 207.39C409.42 207.39 415.01 203.07 419.66 208.29Z" fill="white"/>
<path d="M411.561 215.129C411.561 215.129 404.961 218.279 401.311 211.239C401.311 211.239 408.301 208.429 411.561 215.129Z" fill="white"/>
<path d="M410.58 195.819C410.58 195.819 415.79 200.269 411.15 206.079C411.15 206.079 406.08 201.159 410.58 195.819Z" fill="white"/>
<path d="M407.18 203.409C407.18 203.409 409.09 208.219 403.74 210.499C403.74 210.499 402.1 205.429 407.18 203.409Z" fill="white"/>
<path d="M425.83 188.8C425.83 188.8 424.93 194.94 418.24 194.19C418.24 194.19 419.56 187.93 425.83 188.8Z" fill="white"/>
<path d="M418.19 180.319C418.19 180.319 422.82 183.879 418.94 189.379C418.94 189.379 414.41 185.389 418.19 180.319Z" fill="white"/>
<path d="M412.74 188.199C412.74 188.199 419.43 190.809 416.83 198.159C416.83 198.159 410.12 195.029 412.74 188.199Z" fill="white"/>
<path d="M395.99 211.799C395.99 211.799 396.02 211.799 396.08 211.799C396.15 211.799 396.24 211.799 396.36 211.799C396.6 211.799 396.96 211.809 397.42 211.779C398.34 211.739 399.68 211.619 401.28 211.239C402.88 210.859 404.74 210.179 406.65 209.129C407.61 208.609 408.57 207.989 409.52 207.279C409.75 207.099 409.99 206.909 410.22 206.719C410.34 206.629 410.46 206.529 410.57 206.439C410.69 206.339 410.8 206.239 410.91 206.139C411.14 205.939 411.37 205.729 411.6 205.519C411.82 205.299 412.04 205.079 412.26 204.849C412.37 204.739 412.48 204.629 412.59 204.509C412.69 204.389 412.8 204.279 412.9 204.159C413.1 203.929 413.31 203.699 413.51 203.459C413.7 203.219 413.88 202.979 414.07 202.739C414.16 202.619 414.26 202.499 414.34 202.379C414.42 202.259 414.51 202.129 414.59 202.009C414.76 201.769 414.92 201.519 415.09 201.279C415.24 201.029 415.39 200.789 415.54 200.539C415.61 200.419 415.69 200.299 415.76 200.179C415.83 200.059 415.89 199.929 415.96 199.809C416.09 199.559 416.22 199.319 416.35 199.079C417.35 197.139 417.95 195.259 418.34 193.659C418.73 192.059 418.83 190.719 418.91 189.799C418.93 189.339 418.94 188.979 418.95 188.739C418.95 188.619 418.95 188.529 418.96 188.459C418.96 188.529 418.96 188.619 418.96 188.739C418.96 188.979 418.96 189.339 418.94 189.799C418.87 190.719 418.77 192.059 418.39 193.669C418.01 195.279 417.41 197.169 416.42 199.109C416.29 199.349 416.16 199.599 416.03 199.839C415.96 199.959 415.9 200.089 415.83 200.209C415.76 200.329 415.68 200.449 415.61 200.569C415.46 200.809 415.31 201.059 415.16 201.309C414.99 201.549 414.83 201.789 414.66 202.039C414.58 202.159 414.49 202.289 414.41 202.409C414.32 202.529 414.23 202.649 414.14 202.769C413.95 203.009 413.77 203.249 413.58 203.489C413.38 203.719 413.18 203.959 412.97 204.189C412.87 204.309 412.76 204.419 412.66 204.539C412.55 204.649 412.44 204.759 412.33 204.879C412.11 205.099 411.89 205.329 411.67 205.549C411.44 205.759 411.21 205.969 410.98 206.169C410.87 206.269 410.75 206.379 410.64 206.479C410.52 206.569 410.4 206.669 410.28 206.759C410.04 206.949 409.81 207.129 409.58 207.319C408.63 208.029 407.66 208.649 406.7 209.169C404.78 210.219 402.91 210.889 401.31 211.269C399.7 211.649 398.36 211.759 397.44 211.789C396.98 211.809 396.62 211.789 396.38 211.789C396.26 211.789 396.17 211.789 396.1 211.789C396.04 211.789 396.01 211.789 396.01 211.789L395.99 211.799Z" fill="white"/>
<path d="M331.63 173.04C331.63 173.04 331.48 180.87 339.96 181.32C339.96 181.32 339.6 173.25 331.63 173.04Z" fill="white"/>
<path d="M332.56 185.21C332.56 185.21 334.79 191.69 341.9 189.5C341.9 189.5 339.18 182.98 332.56 185.21Z" fill="white"/>
<path d="M336.21 195.16C336.21 195.16 340.38 201.17 347.04 196.86C347.04 196.86 342.36 190.96 336.21 195.16Z" fill="white"/>
<path d="M346.63 178.87C346.63 178.87 339.9 180.16 341.05 187.5C341.05 187.5 347.89 185.74 346.63 178.87Z" fill="white"/>
<path d="M345.83 187.15C345.83 187.15 341.79 190.38 345.31 195.01C345.31 195.01 349.25 191.41 345.83 187.15Z" fill="white"/>
<path d="M336.86 165.22C336.86 165.22 334.6 171 340.78 173.66C340.78 173.66 342.73 167.57 336.86 165.22Z" fill="white"/>
<path d="M347.69 161.64C347.69 161.64 341.91 162.43 342.55 169.14C342.55 169.14 348.46 167.92 347.69 161.64Z" fill="white"/>
<path d="M348.52 171.179C348.52 171.179 341.42 170.139 340.03 177.799C340.03 177.799 347.41 178.399 348.52 171.179Z" fill="white"/>
<path d="M351.39 199.98C351.39 199.98 351.36 199.96 351.31 199.93C351.25 199.9 351.17 199.85 351.07 199.79C350.86 199.67 350.54 199.5 350.16 199.25C349.38 198.76 348.28 198 347.08 196.87C345.88 195.75 344.6 194.24 343.46 192.38C342.89 191.45 342.36 190.44 341.88 189.35C341.77 189.08 341.66 188.8 341.55 188.52C341.49 188.38 341.44 188.24 341.38 188.1C341.33 187.96 341.28 187.81 341.23 187.67C341.13 187.38 341.04 187.09 340.94 186.79C340.86 186.49 340.78 186.19 340.7 185.89C340.66 185.74 340.62 185.59 340.58 185.44C340.55 185.29 340.52 185.13 340.49 184.98C340.43 184.68 340.36 184.37 340.31 184.07C340.27 183.77 340.22 183.47 340.18 183.17C340.16 183.02 340.14 182.87 340.12 182.72C340.11 182.57 340.09 182.42 340.08 182.28C340.05 181.98 340.03 181.69 340.01 181.4C340.01 181.11 339.99 180.82 339.99 180.54C339.99 180.4 339.99 180.26 339.98 180.11C339.98 179.97 339.98 179.83 339.98 179.69C339.98 179.41 340 179.14 340 178.86C340.09 176.68 340.5 174.75 340.96 173.17C341.42 171.58 341.99 170.37 342.37 169.54C342.58 169.13 342.75 168.82 342.86 168.6C342.91 168.49 342.96 168.41 342.99 168.35C343.02 168.29 343.03 168.26 343.03 168.26C343.03 168.26 343.01 168.29 342.98 168.34C342.95 168.4 342.9 168.48 342.85 168.58C342.73 168.79 342.56 169.11 342.34 169.51C341.95 170.34 341.37 171.56 340.9 173.14C340.43 174.72 340.02 176.66 339.92 178.85C339.92 179.12 339.9 179.4 339.9 179.68C339.9 179.82 339.89 179.96 339.9 180.1C339.9 180.24 339.9 180.38 339.91 180.53C339.91 180.82 339.93 181.1 339.93 181.4C339.95 181.69 339.98 181.98 340 182.28C340.01 182.43 340.02 182.58 340.04 182.73C340.06 182.88 340.08 183.03 340.1 183.18C340.14 183.48 340.19 183.78 340.23 184.09C340.29 184.39 340.35 184.69 340.41 185C340.44 185.15 340.47 185.31 340.5 185.46C340.54 185.61 340.58 185.76 340.62 185.92C340.7 186.22 340.78 186.53 340.86 186.83C340.96 187.13 341.05 187.42 341.15 187.71C341.2 187.86 341.24 188 341.3 188.14C341.36 188.28 341.41 188.42 341.47 188.56C341.58 188.84 341.69 189.12 341.8 189.39C342.28 190.48 342.81 191.5 343.38 192.43C344.53 194.29 345.82 195.8 347.03 196.92C348.24 198.05 349.35 198.81 350.14 199.29C350.53 199.54 350.85 199.7 351.06 199.82C351.17 199.88 351.25 199.92 351.3 199.95C351.36 199.98 351.38 199.99 351.38 199.99L351.39 199.98Z" fill="white"/>
<path d="M289.8 348.19L171.5 348.12C157.27 348.12 145.74 336.57 145.75 322.35L145.81 25.77C145.8 11.53 157.35 0 171.59 0L289.89 0.07C304.12 0.07 315.65 11.62 315.64 25.84L315.58 322.42C315.58 336.66 304.03 348.19 289.8 348.18V348.19Z" fill="#060431"/>
<path d="M289.76 10.5605H266.82C263.74 10.5505 261.25 13.1505 261.25 16.3705V20.5305C261.25 23.7505 258.75 26.3505 255.68 26.3505L210.97 26.3205C207.89 26.3205 205.4 23.7105 205.4 20.4905V16.3305C205.4 13.1105 202.91 10.5105 199.83 10.5005H191.76L171.69 10.4805C161.72 10.4805 153.63 18.5505 153.63 28.5205L153.57 318.01C153.57 327.98 161.64 336.06 171.61 336.06L289.68 336.13C299.65 336.13 307.74 328.06 307.74 318.09L307.8 28.6005C307.8 18.6405 299.73 10.5505 289.76 10.5505V10.5605Z" fill="white"/>
<path d="M307.8 28.6105C307.8 18.6505 299.73 10.5605 289.76 10.5605H266.82C263.74 10.5505 261.25 13.1505 261.25 16.3705V20.5305C261.25 23.7505 258.75 26.3505 255.68 26.3505L210.97 26.3205C207.89 26.3205 205.4 23.7105 205.4 20.4905V16.3305C205.4 13.1105 202.91 10.5105 199.83 10.5005H191.76L171.69 10.4805C161.72 10.4805 153.63 18.5505 153.63 28.5205L153.57 56.2005H307.78V28.5905L307.8 28.6105Z" fill="white"/>
<path d="M280.55 275.94H182.69C173.92 275.94 166.82 268.83 166.82 260.07C166.82 251.3 173.93 244.2 182.69 244.2H280.55C289.32 244.2 296.42 251.31 296.42 260.07C296.42 268.84 289.31 275.94 280.55 275.94Z" fill="#F25C05"/>
<path d="M250.12 302.87C250.03 302.87 250.15 301.22 249.44 298.38C249.11 296.96 248.43 295.28 247.38 293.5C246.32 291.73 244.78 289.88 242.7 288.31C240.63 286.76 238.01 285.44 234.99 284.91C231.99 284.4 228.61 284.49 225.4 285.72C223.78 286.28 222.22 287.13 220.78 288.21C220.04 288.72 219.39 289.36 218.71 289.97C218.1 290.65 217.45 291.31 216.92 292.09C214.68 295.08 213.41 298.91 213.37 302.87C213.41 306.83 214.67 310.67 216.92 313.65C217.45 314.42 218.09 315.09 218.71 315.77C219.39 316.38 220.04 317.02 220.78 317.53C222.21 318.6 223.78 319.46 225.4 320.02C228.62 321.25 232 321.34 234.99 320.83C238.01 320.3 240.62 318.98 242.7 317.43C244.78 315.86 246.31 314.02 247.38 312.24C248.44 310.46 249.11 308.78 249.44 307.36C250.15 304.52 250.02 302.86 250.12 302.87C250.12 302.87 250.13 302.97 250.13 303.17C250.13 303.4 250.12 303.69 250.11 304.05C250.11 304.44 250.09 304.92 249.99 305.48C249.91 306.04 249.84 306.7 249.64 307.41C249.33 308.86 248.68 310.57 247.63 312.39C246.57 314.2 245.03 316.1 242.93 317.72C240.83 319.32 238.16 320.69 235.08 321.25C232.02 321.79 228.55 321.71 225.24 320.47C223.58 319.9 221.97 319.03 220.49 317.93C219.73 317.41 219.06 316.76 218.36 316.13C217.73 315.43 217.06 314.75 216.52 313.96C214.21 310.89 212.9 306.94 212.87 302.87C212.91 298.8 214.21 294.85 216.53 291.79C217.08 291 217.74 290.32 218.37 289.62C219.07 288.99 219.74 288.34 220.5 287.82C221.98 286.72 223.58 285.85 225.25 285.28C228.56 284.04 232.02 283.95 235.09 284.5C238.17 285.06 240.84 286.43 242.94 288.03C245.05 289.65 246.59 291.55 247.64 293.36C248.69 295.18 249.34 296.89 249.65 298.34C249.85 299.05 249.93 299.71 250 300.27C250.1 300.83 250.12 301.31 250.12 301.7C250.12 302.06 250.13 302.35 250.14 302.58C250.14 302.78 250.14 302.88 250.13 302.88L250.12 302.87Z" fill="#F25C05"/>
<path d="M230.93 310.559L222.01 302.889L224.69 299.769L230.67 304.919L240.07 295.189L243.02 298.039L230.93 310.559Z" fill="#F25C05"/>
<path d="M295.25 38.78C295.25 38.87 292.49 38.96 289.08 38.99C285.67 39.02 282.91 38.97 282.91 38.88C282.91 38.79 285.67 38.7 289.08 38.67C292.49 38.64 295.25 38.69 295.25 38.78Z" fill="#060431"/>
<path d="M295.28 41.9401C295.28 42.0301 292.52 42.1201 289.11 42.1501C285.7 42.1801 282.94 42.1301 282.94 42.0401C282.94 41.9501 285.7 41.8601 289.11 41.8301C292.52 41.8001 295.28 41.8501 295.28 41.9401Z" fill="#060431"/>
<path d="M295.3 45.1003C295.3 45.1903 292.54 45.2803 289.13 45.3103C285.72 45.3403 282.96 45.2903 282.96 45.2003C282.96 45.1103 285.72 45.0203 289.13 44.9903C292.54 44.9603 295.3 45.0103 295.3 45.1003Z" fill="#060431"/>
<path d="M194.31 244.631H190.31V337.001H194.31V244.631Z" fill="#060431"/>
<path d="M161.1 247.961H157.1V340.331H161.1V247.961Z" fill="#060431"/>
<path d="M195.31 252.901H189.31V243.961C189.31 243.671 189.09 243.431 188.83 243.431H162.57C162.3 243.431 162.09 243.671 162.09 243.961V251.401H156.09V243.961C156.09 240.361 159 237.431 162.57 237.431H188.83C192.4 237.431 195.31 240.361 195.31 243.961V252.901Z" fill="#08313A"/>
<path d="M156.77 445.45C156.77 448.88 153.99 451.67 150.55 451.67C147.11 451.67 144.33 448.89 144.33 445.45C144.33 442.01 147.11 439.23 150.55 439.23C153.99 439.23 156.77 442.01 156.77 445.45Z" fill="#060431"/>
<path d="M210.419 445.451C210.419 448.881 207.639 451.671 204.199 451.671C200.759 451.671 197.979 448.891 197.979 445.451C197.979 442.011 200.759 439.231 204.199 439.231C207.639 439.231 210.419 442.011 210.419 445.451Z" fill="#060431"/>
<path d="M219.68 398.661V352.911C222.32 352.911 224.47 355.051 224.47 357.701V393.871C224.47 396.511 222.33 398.661 219.68 398.661Z" fill="#060431"/>
<path d="M207.9 314.681H145.43C137.715 314.681 131.46 320.935 131.46 328.651V428.441C131.46 436.156 137.715 442.411 145.43 442.411H207.9C215.615 442.411 221.87 436.156 221.87 428.441V328.651C221.87 320.935 215.615 314.681 207.9 314.681Z" fill="#11697D"/>
<path d="M221.79 330.681C221.79 330.821 201.54 330.941 176.57 330.941C151.6 330.941 131.35 330.821 131.35 330.681C131.35 330.541 151.59 330.421 176.57 330.421C201.55 330.421 221.79 330.541 221.79 330.681Z" fill="#060431"/>
<path d="M221.79 344.171C221.79 344.311 201.54 344.431 176.57 344.431C151.6 344.431 131.35 344.311 131.35 344.171C131.35 344.031 151.59 343.911 176.57 343.911C201.55 343.911 221.79 344.031 221.79 344.171Z" fill="#060431"/>
<path d="M221.79 357.66C221.79 357.8 201.54 357.92 176.57 357.92C151.6 357.92 131.35 357.8 131.35 357.66C131.35 357.52 151.59 357.4 176.57 357.4C201.55 357.4 221.79 357.52 221.79 357.66Z" fill="#060431"/>
<path d="M221.79 371.151C221.79 371.291 201.54 371.411 176.57 371.411C151.6 371.411 131.35 371.291 131.35 371.151C131.35 371.011 151.59 370.891 176.57 370.891C201.55 370.891 221.79 371.011 221.79 371.151Z" fill="#060431"/>
<path d="M221.79 384.631C221.79 384.771 201.54 384.891 176.57 384.891C151.6 384.891 131.35 384.771 131.35 384.631C131.35 384.491 151.59 384.371 176.57 384.371C201.55 384.371 221.79 384.491 221.79 384.631Z" fill="#060431"/>
<path d="M221.79 398.12C221.79 398.26 201.54 398.38 176.57 398.38C151.6 398.38 131.35 398.26 131.35 398.12C131.35 397.98 151.59 397.86 176.57 397.86C201.55 397.86 221.79 397.98 221.79 398.12Z" fill="#060431"/>
<path d="M221.79 411.611C221.79 411.751 201.54 411.871 176.57 411.871C151.6 411.871 131.35 411.751 131.35 411.611C131.35 411.471 151.59 411.351 176.57 411.351C201.55 411.351 221.79 411.471 221.79 411.611Z" fill="#060431"/>
<path d="M221.79 425.101C221.79 425.241 201.54 425.361 176.57 425.361C151.6 425.361 131.35 425.241 131.35 425.101C131.35 424.961 151.59 424.841 176.57 424.841C201.55 424.841 221.79 424.961 221.79 425.101Z" fill="#060431"/>
<path d="M186.77 350.07H166.56V353.73H186.77V350.07Z" fill="white"/>
<path d="M64.02 77.1003C64.02 77.1003 62.32 79.4303 62.35 83.6303C62.37 85.8803 63.9 90.4503 67.89 90.6703C66.83 97.1103 70.95 101.87 77.81 101.88C84.67 101.89 92.53 90.1203 98.89 87.5303L117.35 82.6503C118.97 82.2703 119.64 80.3003 119.61 78.6303C119.58 76.9703 119.15 75.2403 119.74 73.6803C120.55 71.5503 123.02 70.4003 123.86 68.2803C124.82 65.8703 123.33 63.1903 121.62 61.2403C119.91 59.2903 117.82 57.4403 117.27 54.9003C116.77 52.5703 117.67 49.9403 116.5 47.8603C115.07 45.3003 111.31 44.9803 109.57 42.6203C108.73 41.4803 108.46 39.9903 107.63 38.8403C106.21 36.8803 103.47 36.3703 101.06 36.6303C98.65 36.8903 96.34 37.7703 93.92 37.9403C90.61 38.1803 87.18 37.1103 84 38.0703C80.49 39.1303 78.35 42.2403 76.08 45.2603L73.11 48.7603C72.5 49.3603 71.85 49.9103 71.13 50.3803C69.88 51.1903 68.45 51.7603 67.37 52.7903C65.07 55.0103 65.28 59.2603 67.78 61.2403C65.23 62.0603 63.41 64.7303 63.57 67.4103C63.57 67.4103 63.24 70.4703 65.18 71.8303C65.18 71.8303 62.4 73.9303 64.02 77.1003Z" fill="#060431"/>
<path d="M76.3897 83.3501C74.8697 78.6701 73.3697 73.9501 72.6697 69.0801C71.9797 64.2101 72.1197 59.1301 73.8397 54.5101C74.0997 53.8101 76.3197 49.1201 77.0597 49.1901C77.5897 49.2401 76.2297 53.6201 76.4897 54.0801C79.0497 58.4801 79.7497 63.7701 79.3397 68.8401C78.9297 73.9101 77.8797 78.4801 76.3897 83.3501Z" fill="#060431"/>
<path d="M88.5494 126.301C77.6494 124.931 76.3994 107.431 76.3994 107.431L75.8994 64.581C75.4994 52.241 82.3494 41.721 94.6894 41.661L95.8294 41.721C107.319 42.341 116.409 51.671 116.719 63.161C117.009 73.861 117.189 85.681 116.809 91.391C116.029 103.211 104.099 104.421 104.099 104.421C104.069 104.421 103.809 107.171 103.999 110.641C104.669 123.211 91.5994 126.571 88.5394 126.301H88.5494Z" fill="#FBCCB2"/>
<path d="M104.11 104.421C104.11 104.421 96.6302 104.461 88.9502 99.0409C88.9502 99.0409 92.2402 107.851 104.11 107.411V104.421Z" fill="#FBCCB2"/>
<path d="M113.61 72.8601C113.59 73.7501 112.82 74.4801 111.89 74.4801C110.96 74.4801 110.21 73.7601 110.23 72.8601C110.25 71.9701 111.02 71.2401 111.95 71.2401C112.88 71.2401 113.63 71.9601 113.61 72.8601Z" fill="#060431"/>
<path d="M113.939 67.9303C113.719 68.1403 112.489 67.1203 110.669 67.0303C108.859 66.9103 107.469 67.7803 107.289 67.5403C107.199 67.4403 107.429 67.0503 108.039 66.6603C108.629 66.2703 109.629 65.9103 110.759 65.9803C111.889 66.0503 112.819 66.5103 113.349 66.9703C113.889 67.4303 114.049 67.8403 113.949 67.9303H113.939Z" fill="#060431"/>
<path d="M96.52 72.8601C96.5 73.7501 95.73 74.4801 94.8 74.4801C93.87 74.4801 93.12 73.7601 93.14 72.8601C93.16 71.9701 93.93 71.2401 94.86 71.2401C95.79 71.2401 96.54 71.9601 96.52 72.8601Z" fill="#060431"/>
<path d="M96.0897 67.7106C95.8697 67.9206 94.6397 66.9006 92.8197 66.8106C91.0097 66.6906 89.6197 67.5606 89.4397 67.3206C89.3497 67.2206 89.5797 66.8306 90.1897 66.4406C90.7797 66.0506 91.7797 65.6906 92.9097 65.7606C94.0397 65.8306 94.9697 66.3006 95.4997 66.7506C96.0297 67.2106 96.1997 67.6206 96.0997 67.7106H96.0897Z" fill="#060431"/>
<path d="M101.86 82.0301C101.86 81.9301 103 81.7901 104.84 81.6601C105.31 81.6401 105.75 81.5701 105.85 81.2601C105.98 80.9301 105.81 80.4201 105.61 79.8701C105.23 78.7201 104.84 77.5201 104.43 76.2601C102.79 71.1201 101.64 66.9101 101.84 66.8501C102.05 66.7901 103.54 70.9001 105.18 76.0301C105.57 77.3001 105.95 78.5001 106.3 79.6601C106.45 80.2001 106.72 80.8101 106.44 81.4901C106.3 81.8301 105.94 82.0601 105.64 82.1301C105.34 82.2001 105.08 82.2001 104.85 82.2001C103 82.2001 101.86 82.1501 101.86 82.0401V82.0301Z" fill="#060431"/>
<path d="M96.4394 83.0009C96.7394 83.0009 96.6294 84.9709 98.2494 86.4609C99.8594 87.9609 101.979 87.8509 101.979 88.1209C101.999 88.2509 101.489 88.4809 100.599 88.4509C99.7294 88.4309 98.4694 88.0909 97.4794 87.1709C96.4994 86.2609 96.1094 85.0909 96.0894 84.2709C96.0594 83.4409 96.3094 82.9609 96.4394 82.9809V83.0009Z" fill="#060431"/>
<path d="M96.38 60.3308C96.17 60.8108 94.37 60.4808 92.23 60.6308C90.08 60.7308 88.33 61.2608 88.07 60.8008C87.96 60.5808 88.28 60.1308 89 59.6908C89.71 59.2508 90.84 58.8508 92.13 58.7808C93.42 58.7108 94.58 58.9708 95.34 59.3308C96.11 59.6908 96.48 60.1008 96.39 60.3308H96.38Z" fill="#060431"/>
<path d="M113.51 61.8503C113.17 62.2503 111.94 61.7503 110.43 61.6503C108.93 61.5003 107.63 61.7803 107.36 61.3303C107.24 61.1103 107.47 60.7103 108.04 60.3503C108.61 59.9903 109.55 59.7203 110.58 59.8103C111.61 59.9003 112.49 60.3203 112.99 60.7703C113.5 61.2203 113.65 61.6603 113.5 61.8503H113.51Z" fill="#060431"/>
<path d="M76.3997 73.3805C76.1997 73.2805 68.3997 70.5405 68.2197 78.6405C68.0397 86.7405 76.2097 85.2505 76.2297 85.0105C76.2497 84.7805 76.3897 73.3705 76.3897 73.3705L76.3997 73.3805Z" fill="#FDE7DA"/>
<path d="M73.8295 81.8906C73.8295 81.8906 73.6895 81.9906 73.4495 82.0906C73.2195 82.1906 72.8095 82.2606 72.3895 82.0906C71.5395 81.7606 70.8495 80.3806 70.8395 78.9206C70.8395 78.1806 71.0095 77.4806 71.2795 76.9106C71.5395 76.3206 71.9295 75.9206 72.3695 75.8506C72.7995 75.7606 73.0995 76.0206 73.1895 76.2606C73.2895 76.4906 73.2395 76.6506 73.2795 76.6606C73.2995 76.6806 73.4595 76.5306 73.3995 76.1906C73.3695 76.0306 73.2795 75.8406 73.0895 75.6806C72.8995 75.5206 72.6095 75.4306 72.3095 75.4606C71.6795 75.4906 71.1095 76.0506 70.8095 76.6806C70.4695 77.3106 70.2695 78.1006 70.2695 78.9306C70.2895 80.5606 71.0895 82.1106 72.2495 82.4706C72.8195 82.6306 73.2995 82.4706 73.5495 82.2806C73.8095 82.0906 73.8495 81.9106 73.8195 81.8906H73.8295Z" fill="#FBCCB2"/>
<path d="M111.66 49.6706C112.98 48.9606 109.1 44.6706 105.9 43.1606C101.06 40.8906 93.6395 39.4306 89.1295 40.6506C83.6995 42.1106 79.1796 44.7506 76.3996 49.6306C73.6196 54.5206 72.5296 60.2406 72.6096 65.8606C72.6396 67.5706 72.7896 69.3606 73.6896 70.8306C74.7996 72.6406 76.9596 73.7906 76.8296 76.2606C76.7796 77.1606 77.0295 78.0806 77.6395 78.7406C79.0995 80.3406 80.9296 78.8806 81.7896 77.4006C83.6096 74.2506 83.8595 70.4606 84.0595 66.8306C84.1995 64.2506 84.3396 61.6106 83.6496 59.1206C83.2696 57.7606 82.6495 56.4806 82.3495 55.1106C82.0495 53.7406 82.1096 52.1806 82.9796 51.0706C83.1196 50.8906 83.3496 50.6606 83.6496 50.4106C85.9696 48.4306 89.1896 47.8706 92.0496 48.9206C96.5896 50.5906 104.35 53.1006 106.41 51.5806C109.37 49.3906 110.09 47.9506 110.09 47.9506L111.68 49.6706H111.66Z" fill="#060431"/>
<path d="M89.5598 39.5505C94.0298 38.1205 99.0998 38.2605 103.24 40.4805C105.44 41.6605 107.41 43.5205 108.06 45.9205C108.7 48.3305 107.64 51.2705 105.32 52.1805L105.16 52.2805C101.69 53.4005 99.4498 52.9105 96.0198 51.6705C93.1298 50.6305 90.5798 48.8105 87.6798 47.7805C84.6098 46.6905 81.1998 46.5505 78.0498 47.3805C81.1898 43.8905 85.0998 40.9906 89.5698 39.5606L89.5598 39.5505Z" fill="#060431"/>
<path d="M74.1504 47.5599C74.2204 47.6199 74.8704 46.8499 76.1904 45.9299C76.8504 45.4799 77.6704 44.9899 78.6504 44.6099C79.6204 44.2399 80.7604 43.9599 81.9504 44.0599C84.3604 44.2899 86.3604 45.4099 87.6004 46.3899C88.8504 47.3799 89.4404 48.2199 89.5104 48.1599C89.5404 48.1399 89.4204 47.9099 89.1604 47.5399C88.9004 47.1599 88.4604 46.6499 87.8504 46.0999C86.6304 45.0099 84.5704 43.7699 82.0004 43.5199C80.7004 43.4099 79.4904 43.7299 78.4804 44.1499C77.4604 44.5699 76.6304 45.1199 75.9804 45.6199C74.6804 46.6499 74.1204 47.5199 74.1704 47.5499L74.1504 47.5599Z" fill="#08313A"/>
<path d="M98.8401 38.8107C98.8201 38.9007 99.6801 39.1007 100.99 39.6207C102.3 40.1407 104.03 41.0407 105.68 42.3907C107.33 43.7507 108.54 45.2807 109.3 46.4707C110.06 47.6507 110.42 48.4607 110.5 48.4207C110.55 48.4007 110.32 47.5407 109.62 46.2707C108.93 45.0107 107.72 43.3807 106.02 41.9707C104.31 40.5707 102.48 39.6907 101.11 39.2507C99.7401 38.8107 98.8401 38.7407 98.8301 38.8007L98.8401 38.8107Z" fill="#08313A"/>
<path d="M69.97 409.21L50.37 424.98C50.37 424.98 61.18 448.98 57.84 452.25L24.54 416.56L54.07 390.74L69.97 409.22V409.21Z" fill="#F25C05"/>
<g opacity="0.6">
<path d="M42.0998 412.181C41.2898 411.631 40.0598 411.841 39.4798 412.631C38.8998 413.421 39.0999 414.671 39.8999 415.231C40.6999 415.791 42.1898 415.591 42.6698 414.741C43.1598 413.891 42.8498 412.431 41.9298 412.081" fill="white"/>
</g>
<g opacity="0.6">
<path d="M24.54 416.56L27.52 413.96L58.47 449.54C58.47 449.54 59.03 451.15 57.75 452.67L24.54 416.56Z" fill="white"/>
</g>
<path d="M51.0802 425.41C50.8902 425.56 50.0302 424.73 48.6902 424.34C47.3502 423.92 46.1802 424.14 46.1002 423.91C45.9902 423.71 47.3002 423.05 48.9202 423.55C50.5502 424.03 51.2702 425.31 51.0702 425.41H51.0802Z" fill="#060431"/>
<path d="M52.8297 430.67C52.6897 430.86 51.7097 430.35 50.4197 430.39C49.1297 430.39 48.1697 430.96 48.0197 430.77C47.8497 430.62 48.7897 429.59 50.3997 429.56C52.0097 429.52 52.9997 430.51 52.8297 430.66V430.67Z" fill="#060431"/>
<path d="M50.0997 436.88C49.9197 436.75 50.5997 435.72 51.9897 435.33C53.3697 434.93 54.4997 435.44 54.4197 435.65C54.3597 435.88 53.3597 435.79 52.2197 436.13C51.0797 436.44 50.2697 437.05 50.0997 436.88Z" fill="#060431"/>
<path d="M55.1498 421.33C54.9198 421.4 54.4498 420.35 53.4998 419.4C52.5698 418.42 51.5398 417.93 51.6098 417.7C51.6498 417.48 52.9898 417.68 54.0898 418.82C55.1998 419.96 55.3598 421.3 55.1398 421.33H55.1498Z" fill="#060431"/>
<path d="M59.0402 418.07C58.9702 418.14 58.2402 417.52 57.4502 416.21C57.0602 415.56 56.6702 414.73 56.3702 413.76C56.2202 413.28 56.1002 412.76 56.0202 412.21C55.9802 411.95 55.9202 411.65 55.9702 411.28C55.9902 410.92 56.3702 410.39 56.8602 410.37C57.3102 410.31 57.7202 410.54 57.9602 410.8C58.2002 411.06 58.3402 411.33 58.4602 411.58C58.7202 412.08 58.9102 412.58 59.0602 413.07C59.3502 414.05 59.4402 414.98 59.4202 415.74C59.3702 417.28 58.9502 418.16 58.8602 418.13C58.7302 418.1 58.9302 417.19 58.8302 415.76C58.7802 415.04 58.6402 414.2 58.3302 413.31C58.1802 412.87 57.9802 412.41 57.7402 411.97C57.5002 411.49 57.2202 411.15 56.9602 411.21C56.8602 411.23 56.8302 411.25 56.7902 411.43C56.7602 411.61 56.7902 411.85 56.8302 412.12C56.9002 412.63 57.0002 413.12 57.1202 413.58C57.3602 414.5 57.6702 415.3 57.9802 415.96C58.6002 417.27 59.1502 418.01 59.0502 418.09L59.0402 418.07Z" fill="#060431"/>
<path d="M58.5797 418.06C58.4997 418.02 58.8297 417.1 59.9397 416.03C60.4897 415.5 61.2497 414.95 62.1797 414.53C62.6497 414.32 63.1597 414.15 63.7097 414.03C64.2597 413.93 64.9797 413.77 65.6597 414.4C65.9897 414.75 65.9697 415.3 65.8097 415.62C65.6697 415.96 65.4697 416.17 65.2997 416.4C64.9297 416.84 64.4997 417.2 64.0597 417.48C63.1697 418.04 62.2397 418.29 61.4697 418.34C59.8897 418.45 59.0197 417.88 59.0697 417.81C59.1097 417.67 59.9997 418 61.3997 417.76C62.0897 417.64 62.8997 417.36 63.6397 416.84C64.0097 416.58 64.3697 416.26 64.6797 415.88C65.0197 415.48 65.2097 415.06 65.0397 414.95C64.8797 414.76 64.3197 414.71 63.8797 414.83C63.3897 414.93 62.9197 415.07 62.4797 415.24C61.6097 415.59 60.8897 416.04 60.3297 416.48C59.1997 417.37 58.6897 418.14 58.5797 418.07V418.06Z" fill="#060431"/>
<path d="M68.7904 412.42L70.6904 437.5C70.6904 437.5 45.7904 446.03 45.6904 450.7L94.5004 450.59L93.1404 411.38L68.7904 412.41V412.42Z" fill="#F25C05"/>
<g opacity="0.6">
<path d="M85.6907 434.79C86.6407 435.01 87.3407 436.05 87.1607 437.01C86.9807 437.97 85.9307 438.69 84.9707 438.48C84.0107 438.28 83.1407 437.06 83.4307 436.12C83.7207 435.18 84.9907 434.41 85.8707 434.84" fill="white"/>
</g>
<g opacity="0.6">
<path d="M94.5004 450.59L94.3604 446.64L47.2304 448.39C47.2304 448.39 45.6704 449.08 45.4404 451.06L94.5004 450.59Z" fill="white"/>
</g>
<path d="M69.8905 437.29C69.9105 437.53 71.1005 437.59 72.3005 438.31C73.5205 439 74.1705 440.01 74.3805 439.9C74.6005 439.85 74.1905 438.44 72.7205 437.59C71.2605 436.73 69.8305 437.07 69.8905 437.29Z" fill="#060431"/>
<path d="M64.8601 439.609C64.8101 439.839 65.8601 440.209 66.7101 441.179C67.5901 442.129 67.8401 443.209 68.0701 443.189C68.3001 443.219 68.4001 441.819 67.3301 440.619C66.2601 439.419 64.8601 439.369 64.8601 439.599V439.609Z" fill="#060431"/>
<path d="M62.2006 445.85C62.4206 445.89 62.7006 444.69 62.0406 443.41C61.3906 442.13 60.2406 441.66 60.1506 441.86C60.0206 442.06 60.7706 442.73 61.3006 443.79C61.8506 444.84 61.9606 445.84 62.2006 445.85Z" fill="#060431"/>
<path d="M70.0906 431.52C70.2006 431.73 71.2806 431.36 72.6306 431.4C73.9806 431.41 75.0506 431.82 75.1606 431.61C75.2906 431.43 74.2306 430.59 72.6406 430.57C71.0506 430.54 69.9606 431.34 70.0906 431.52Z" fill="#060431"/>
<path d="M69.8004 426.46C69.8004 426.56 70.7504 426.67 72.2404 426.35C72.9804 426.19 73.8604 425.91 74.7604 425.46C75.2104 425.24 75.6804 424.97 76.1304 424.66C76.3504 424.51 76.6104 424.35 76.8404 424.06C77.0904 423.8 77.2204 423.16 76.9004 422.79C76.6404 422.43 76.1904 422.28 75.8304 422.29C75.4704 422.29 75.1804 422.38 74.9204 422.45C74.3804 422.6 73.8804 422.8 73.4204 423.03C72.5104 423.49 71.7704 424.06 71.2304 424.6C70.1404 425.69 69.7904 426.6 69.8704 426.64C69.9804 426.71 70.5004 425.95 71.6204 425.04C72.1804 424.59 72.8904 424.11 73.7504 423.73C74.1804 423.54 74.6404 423.37 75.1304 423.24C75.6404 423.08 76.0804 423.06 76.2204 423.29C76.2704 423.38 76.2804 423.41 76.1804 423.57C76.0704 423.71 75.8704 423.86 75.6504 424.01C75.2304 424.31 74.8104 424.57 74.3904 424.8C73.5604 425.26 72.7504 425.58 72.0704 425.8C70.6904 426.25 69.7704 426.35 69.7804 426.48L69.8004 426.46Z" fill="#060431"/>
<path d="M70.1307 426.79C70.2207 426.82 70.6507 425.95 70.6807 424.41C70.6907 423.64 70.5707 422.72 70.2407 421.75C70.0707 421.27 69.8507 420.77 69.5607 420.29C69.2607 419.82 68.8807 419.19 67.9507 419.12C67.4707 419.12 67.0807 419.51 66.9607 419.84C66.8107 420.18 66.7907 420.46 66.7407 420.75C66.6707 421.32 66.7107 421.88 66.8007 422.4C66.9907 423.43 67.4507 424.28 67.9407 424.88C68.9407 426.11 69.9507 426.35 69.9707 426.27C70.0407 426.15 69.2007 425.72 68.4207 424.54C68.0407 423.96 67.6907 423.18 67.5607 422.28C67.4907 421.83 67.4807 421.35 67.5507 420.87C67.6107 420.35 67.7807 419.92 67.9807 419.97C68.2207 419.96 68.6507 420.33 68.8707 420.74C69.1407 421.17 69.3507 421.61 69.5307 422.04C69.8707 422.91 70.0407 423.75 70.1007 424.46C70.2207 425.89 70.0007 426.79 70.1407 426.82L70.1307 426.79Z" fill="#060431"/>
<path d="M50.6301 231.82C50.6301 231.82 55.9201 306.94 57.9801 324.17C59.2901 335.12 65.6101 427.21 65.6101 427.21L97.4501 426.22L92.3201 280.39V235.65L50.6201 231.82H50.6301Z" fill="#060431"/>
<path d="M46.3604 392.58L67.4404 413.95C67.4404 413.95 131.28 351.75 133.87 347.08C136.46 342.41 135.68 284.89 135.68 284.89L133.82 233.33L88.2403 235.65L92.7403 286.94L98.8103 334.13L46.3604 392.59V392.58Z" fill="#060431"/>
<path d="M104.27 377.711C104.27 377.711 104.06 377.951 103.62 378.401C103.17 378.861 102.52 379.511 101.68 380.361C99.9498 382.081 97.4398 384.581 94.2498 387.761C87.8098 394.131 78.6298 403.211 67.5998 414.111L67.4398 414.271L67.2798 414.111C60.8798 407.631 53.7498 400.421 46.1798 392.761L46.0098 392.591L46.1698 392.411C51.5598 386.401 57.2898 380.011 63.1798 373.441C76.1498 359.011 88.3098 345.471 98.6398 333.971L98.5798 334.151C96.6798 318.051 95.0898 304.621 93.9698 295.191C93.4298 290.501 93.0098 286.801 92.7098 284.261C92.5698 283.011 92.4698 282.051 92.3998 281.381C92.3698 281.071 92.3498 280.821 92.3298 280.641C92.3198 280.471 92.3098 280.391 92.3198 280.391C92.3198 280.391 92.3398 280.471 92.3698 280.641C92.3998 280.821 92.4298 281.061 92.4798 281.381C92.5698 282.051 92.6998 283.011 92.8598 284.251C93.1798 286.791 93.6498 290.481 94.2398 295.161C95.3998 304.581 97.0498 318.011 99.0298 334.101V334.201L98.9698 334.281C88.6598 345.791 76.5098 359.341 63.5598 373.791C57.6598 380.361 51.9298 386.741 46.5298 392.751V392.401C54.0798 400.081 61.1898 407.301 67.5798 413.791H67.2698C78.3498 402.941 87.5798 393.901 94.0498 387.571C97.2798 384.431 99.8198 381.961 101.57 380.261C102.43 379.431 103.1 378.791 103.56 378.351C104.01 377.921 104.26 377.711 104.26 377.711H104.27Z" fill="#08313A"/>
<path d="M108.8 338.62C108.74 338.75 106.66 337.86 104.16 336.62C101.66 335.39 99.6798 334.29 99.7498 334.16C99.8098 334.03 101.89 334.92 104.39 336.16C106.89 337.39 108.87 338.49 108.8 338.62Z" fill="#08313A"/>
<path d="M96.2201 277.88C96.2201 277.88 95.5301 277.99 94.3001 278.07C92.9601 278.14 91.2201 278.23 89.1701 278.34H88.9501V278.12C88.9501 275.47 88.9401 272.23 88.8701 268.73C88.7801 264.19 88.6101 260.08 88.4801 257.11C88.4201 255.7 88.3701 254.52 88.3301 253.59C88.3001 252.76 88.3001 252.3 88.3301 252.29C88.3701 252.29 88.4301 252.74 88.5301 253.57C88.6201 254.4 88.7301 255.6 88.8501 257.09C89.0801 260.06 89.3101 264.17 89.3901 268.72C89.4601 272.22 89.4401 275.47 89.3801 278.12L89.1601 277.9C91.2101 277.87 92.9501 277.84 94.2901 277.81C95.5201 277.81 96.2201 277.82 96.2201 277.87V277.88Z" fill="#08313A"/>
<path d="M94 254.02C94 254.02 94.17 253.93 94.51 253.96C94.84 253.99 95.32 254.17 95.76 254.59C96.18 255.01 96.59 255.69 96.51 256.54C96.45 257.4 95.73 258.19 94.83 258.46C93.94 258.75 92.89 258.52 92.35 257.84C91.8 257.19 91.75 256.39 91.85 255.81C91.97 255.22 92.26 254.8 92.51 254.58C92.76 254.36 92.95 254.32 92.96 254.34C93.03 254.4 92.33 254.79 92.21 255.87C92.16 256.38 92.26 257.04 92.7 257.53C93.12 258.03 93.92 258.2 94.66 257.97C95.4 257.74 95.96 257.14 96.02 256.49C96.11 255.84 95.81 255.23 95.48 254.85C94.76 254.04 93.97 254.12 93.99 254.02H94Z" fill="#08313A"/>
<path d="M75.7103 108.32C75.7103 108.32 83.9903 117.37 105.67 110.15L119.38 130.2L133.47 244.35L87.2903 251.8L51.3203 246.09L62.7803 130.2L75.7103 108.32Z" fill="#BFBFBF"/>
<path d="M77.6699 109.52C79.4299 113.38 83.6899 122.47 83.6899 122.47C83.6899 122.47 72.9699 193.63 71.8399 204.88C70.5999 217.27 78.2699 261.15 78.2699 261.15L40.6699 255.27L51.2499 139.25L46.1199 116.87C46.1199 116.87 55.2699 113.09 64.3799 111.18L72.2699 110.06L74.4399 106.46L75.8899 104.28L77.6799 109.54L77.6699 109.52Z" fill="#F25C05"/>
<path d="M73.1499 110.8C73.1499 110.8 73.3099 111.16 73.4999 111.84C73.6899 112.52 73.9499 113.5 74.2599 114.72C74.8799 117.16 75.7099 120.54 76.5799 124.27C76.8999 125.64 77.1999 126.95 77.4899 128.18H76.9999C77.3399 126.76 77.8599 125.5 78.4399 124.43C79.0399 123.38 79.5899 122.44 80.3599 121.88C80.7399 121.61 81.1799 121.48 81.5499 121.51C81.9199 121.54 82.2199 121.68 82.4099 121.84C82.8099 122.19 82.7699 122.53 82.7499 122.51C82.7099 122.53 82.6799 122.23 82.2999 121.97C81.9399 121.72 81.1899 121.58 80.5299 122.12C79.8799 122.63 79.3599 123.58 78.7999 124.61C78.2599 125.66 77.7799 126.9 77.4599 128.27L77.2199 129.31L76.9699 128.27C76.6799 127.05 76.3699 125.73 76.0399 124.37C75.1599 120.63 74.3899 117.24 73.8599 114.78C73.5899 113.55 73.3899 112.55 73.2599 111.86C73.1299 111.17 73.0699 110.78 73.1099 110.77L73.1499 110.8Z" fill="#060431"/>
<path d="M50.249 206.79L59.779 209.57C59.779 209.57 62.859 216.78 63.419 225.09C63.979 233.39 60.339 293.56 60.339 293.56L29.799 292.24L28.869 289.46C28.399 288.04 28.209 286.54 28.329 285.05C29.089 275.17 30.459 240.85 37.879 220.88C41.419 211.36 50.259 206.79 50.259 206.79H50.249Z" fill="#11697D"/>
<path d="M60.9297 111.34C60.9297 111.34 63.8197 116.81 63.4797 128.86C63.1397 140.91 46.4297 224.74 46.4297 224.74L57.0797 225.67C57.0797 225.67 67.9097 156.04 68.4697 149.03C69.0297 142.02 72.9497 116.48 68.4697 110.9C68.4697 110.9 64.0397 108.95 60.9297 111.34Z" fill="#08313A"/>
<path d="M42.5696 213.09C42.5696 213.09 31.3696 227.05 27.6396 253.37L32.5896 254.44L42.5696 213.09Z" fill="#08313A"/>
<path d="M49.0594 219.12C49.0594 219.12 49.0594 219.3 49.0094 219.63C48.9494 220.02 48.8694 220.5 48.7794 221.08C48.5894 222.34 48.2894 224.16 47.9794 226.41C47.3294 230.91 46.7194 237.19 45.4294 244.04C45.0994 245.75 44.7594 247.41 44.3594 249.02C43.9394 250.61 43.3894 252.17 42.4194 253.4C41.4794 254.66 39.9594 255.38 38.5694 255.37C37.1794 255.39 35.9594 255.1 34.8294 254.93C32.5694 254.54 30.7994 254.01 29.5494 253.79C28.9694 253.68 28.4994 253.58 28.1094 253.51C27.7794 253.44 27.6094 253.4 27.6094 253.38C27.6094 253.36 27.7894 253.38 28.1194 253.4C28.4494 253.43 28.9494 253.49 29.5794 253.59C30.8494 253.75 32.6394 254.23 34.8794 254.57C35.9994 254.72 37.2394 254.98 38.5394 254.94C39.8394 254.93 41.1494 254.28 42.0194 253.11C42.9094 251.96 43.4394 250.46 43.8394 248.89C44.2194 247.31 44.5594 245.64 44.8894 243.94C46.1694 237.12 46.8394 230.86 47.5894 226.36C47.9494 224.11 48.2994 222.29 48.5494 221.05C48.6794 220.48 48.7894 220 48.8694 219.62C48.9494 219.29 48.9994 219.12 49.0194 219.13L49.0594 219.12Z" fill="#060431"/>
<path d="M59.9993 210.12C59.9993 210.12 59.9993 210.71 59.9093 211.77C59.7993 212.92 59.6593 214.42 59.4793 216.24C59.3793 217.19 59.2693 218.22 59.1593 219.32C59.0293 220.42 58.9593 221.62 58.6593 222.87C58.3793 224.12 57.6693 225.42 56.4993 226.26C55.3693 227.12 53.7893 227.55 52.2893 227.17C50.8093 226.81 49.5393 225.77 48.9793 224.42C48.4193 223.07 48.5093 221.67 48.6193 220.42C48.8693 217.92 49.2193 215.68 49.5693 213.81C49.9193 211.94 50.2793 210.45 50.5493 209.42C50.8193 208.39 50.9993 207.83 51.0293 207.84C51.0693 207.84 50.9493 208.42 50.7393 209.46C50.5293 210.5 50.2293 212 49.9293 213.87C49.6293 215.74 49.3093 217.97 49.0893 220.46C48.9893 221.69 48.9293 223.02 49.4393 224.21C49.9393 225.39 51.0793 226.33 52.4093 226.65C53.7393 226.99 55.1493 226.61 56.1893 225.84C57.2593 225.07 57.8993 223.93 58.1793 222.74C58.4793 221.56 58.5693 220.36 58.7193 219.26C58.8593 218.16 58.9893 217.13 59.0993 216.18C59.3393 214.37 59.5393 212.87 59.6893 211.73C59.8393 210.68 59.9393 210.1 59.9793 210.11L59.9993 210.12Z" fill="#060431"/>
<path d="M60.4193 293.61C60.4193 293.61 59.9993 293.24 59.2993 292.52C58.5993 291.8 57.5793 290.75 56.2993 289.5C55.0093 288.25 53.4493 286.78 51.6593 285.22C50.7593 284.44 49.8093 283.64 48.8093 282.82C47.8193 282.03 46.7093 281.23 45.4393 280.93C44.8093 280.78 44.1593 280.81 43.5793 281.01C42.9893 281.21 42.4593 281.58 41.9693 281.98C40.9893 282.82 40.0493 283.63 39.1393 284.41C37.3493 285.94 35.7193 287.33 34.3293 288.52C32.9993 289.63 31.8993 290.55 31.0593 291.26C30.2793 291.9 29.8393 292.24 29.8093 292.21C29.7893 292.18 30.1793 291.79 30.9193 291.11C31.7393 290.37 32.7993 289.41 34.0793 288.25C35.4493 287.03 37.0493 285.62 38.8193 284.05C39.7193 283.26 40.6593 282.44 41.6393 281.58C42.1493 281.16 42.7193 280.76 43.3993 280.52C44.0793 280.28 44.8393 280.25 45.5493 280.42C46.9793 280.76 48.1093 281.61 49.1193 282.42C50.1293 283.24 51.0793 284.06 51.9693 284.85C53.7493 286.44 55.2993 287.94 56.5593 289.23C57.8193 290.53 58.7893 291.61 59.4493 292.38C60.1093 293.14 60.4493 293.59 60.4193 293.61Z" fill="#060431"/>
<path d="M51.8091 227.64C51.9491 227.66 50.4191 239.48 48.3891 254.05C46.3591 268.62 44.5991 280.41 44.4591 280.39C44.3191 280.37 45.8491 268.55 47.8791 253.98C49.9091 239.42 51.6691 227.62 51.8091 227.64Z" fill="#060431"/>
<path d="M56.4097 221.9C56.4097 221.9 56.3497 221.65 56.2297 221.25C56.0997 220.85 55.8097 220.28 55.2097 219.85C54.6297 219.42 53.6797 219.18 52.7797 219.53C51.8897 219.85 51.1197 220.8 51.1297 221.91C51.1297 223.02 51.8897 223.97 52.7797 224.29C53.6797 224.63 54.6197 224.4 55.2097 223.97C55.8097 223.54 56.0997 222.96 56.2297 222.57C56.3597 222.16 56.3697 221.92 56.4097 221.92C56.4397 221.92 56.4997 222.17 56.4197 222.62C56.3397 223.06 56.0797 223.73 55.4297 224.27C54.7897 224.81 53.6997 225.13 52.6097 224.75C51.5397 224.4 50.5897 223.26 50.5997 221.92C50.5897 220.58 51.5297 219.44 52.6097 219.09C53.6897 218.71 54.7897 219.03 55.4297 219.57C56.0897 220.11 56.3497 220.78 56.4197 221.22C56.4997 221.67 56.4397 221.92 56.4097 221.92V221.9Z" fill="#060431"/>
<path d="M187.959 224.671L203.469 236.591L202.009 248.781L201.699 250.641L196.489 253.871H187.429C187.429 253.871 185.969 250.121 189.299 250.431C189.299 250.431 187.659 247.931 192.289 247.311C196.919 246.691 197.839 245.131 197.839 245.131L197.419 242.941L195.749 240.861L194.169 239.271L185.439 229.511L187.939 224.671H187.959Z" fill="#FBCCB2"/>
<path d="M159.1 210.401C159.09 210.511 177.07 229.011 177.07 229.011L187.96 224.671L174.88 197.771L163.97 193.891L159.1 202.581V210.411V210.401Z" fill="#FBCCB2"/>
<path d="M176.55 228.21C176.55 228.21 179.52 232.94 181.92 235.23C184.32 237.52 188.37 239.6 188.37 239.6C188.37 239.6 192.01 249.18 194.41 248.76C196.81 248.34 197.64 247.09 196.28 244.49C194.93 241.89 191.8 232.31 191.8 232.31L186.04 220.86L176.54 228.2L176.55 228.21Z" fill="#FBCCB2"/>
<path d="M130.74 117.481C130.74 117.481 137.37 119.481 141.2 128.401C145.02 137.321 160.31 169.281 160.31 169.281L176.56 198.481C176.56 198.481 169.23 198.481 163.82 202.621C158.4 206.761 159.04 212.181 159.04 212.181C159.04 212.181 154.32 211.221 153.65 208.361C152.99 205.491 153.65 202.941 153.65 202.941L147.89 195.611L144.39 188.601L133.37 170.051L125.92 140.491L130.75 117.471L130.74 117.481Z" fill="#F25C05"/>
<path d="M139.91 265.501C139.91 265.501 134.01 204.441 134.28 203.711C134.56 202.981 133.64 167.971 134.28 167.431C134.92 166.881 130.74 117.481 130.74 117.481L108.98 110.751L109.27 110.791L104.28 105.521C104.28 105.521 98.1903 125.701 98.2803 126.031C100.04 132.981 106.35 236.331 106.35 236.331C106.35 237.071 108.84 265.491 108.84 265.491H139.92L139.91 265.501Z" fill="#F25C05"/>
<path d="M133.32 170.62C133.32 170.62 133.08 170.84 132.58 171.2C132.03 171.59 131.3 172.1 130.39 172.74L130.33 172.78L130.26 172.75C127.6 171.46 123.57 169.51 118.7 167.15L118.58 167.09V166.95C118.29 163.2 117.97 158.94 117.63 154.45C117.33 150.23 117.04 146.23 116.79 142.63V142.42L116.98 142.38C122 141.31 126.39 141.83 129.34 142.47C130.82 142.79 131.97 143.16 132.74 143.44C133.51 143.72 133.9 143.92 133.89 143.95C133.88 143.97 133.47 143.82 132.69 143.59C131.91 143.36 130.76 143.04 129.28 142.76C126.34 142.21 122 141.77 117.08 142.86L117.27 142.61C117.54 146.21 117.84 150.21 118.16 154.43C118.48 158.92 118.78 163.18 119.05 166.93L118.92 166.74C123.75 169.18 127.74 171.2 130.38 172.53H130.26C131.2 171.94 131.95 171.46 132.52 171.09C133.04 170.77 133.32 170.6 133.33 170.62H133.32Z" fill="#060431"/>
<path d="M133.67 135.021C133.67 135.021 133.76 135.551 133.83 136.501C133.9 137.461 133.97 138.841 134.03 140.551C134.15 143.971 134.19 148.701 134.15 153.921C134.12 159.141 134.1 163.87 134.12 167.29C134.13 168.93 134.14 170.29 134.15 171.34C134.15 172.3 134.15 172.831 134.1 172.831C134.06 172.831 134.01 172.301 133.94 171.351C133.87 170.391 133.8 169.011 133.74 167.301C133.62 163.881 133.58 159.151 133.62 153.921C133.65 148.701 133.67 143.981 133.65 140.561C133.64 138.921 133.63 137.56 133.62 136.51C133.62 135.55 133.62 135.021 133.67 135.021Z" fill="#060431"/>
<path d="M167.61 189.45C167.63 189.54 166.52 189.83 164.84 190.6C163.17 191.36 160.98 192.71 158.99 194.69C157.01 196.68 155.66 198.86 154.89 200.53C154.12 202.2 153.83 203.32 153.74 203.29C153.71 203.29 153.75 203 153.87 202.49C153.98 201.98 154.21 201.25 154.56 200.38C155.25 198.64 156.59 196.36 158.63 194.32C160.67 192.29 162.96 190.96 164.7 190.27C165.57 189.92 166.3 189.69 166.81 189.59C167.32 189.47 167.61 189.43 167.61 189.46V189.45Z" fill="#060431"/>
<path d="M162.631 188.261C162.701 188.411 159.941 189.481 157.151 191.731C154.341 193.961 152.691 196.401 152.551 196.311C152.501 196.281 152.841 195.621 153.561 194.661C154.281 193.701 155.401 192.471 156.821 191.331C158.251 190.191 159.701 189.371 160.791 188.881C161.881 188.391 162.601 188.201 162.621 188.261H162.631Z" fill="#060431"/>
<path d="M109.261 110.801C109.261 110.801 109.271 111.291 109.191 112.161C109.111 113.031 108.981 114.291 108.811 115.831C108.451 118.931 107.921 123.211 107.181 127.911C106.911 129.611 106.641 131.241 106.361 132.751L106.231 133.471L105.901 132.821C105.091 131.241 104.241 129.811 103.431 128.571C103.031 127.951 102.631 127.371 102.251 126.841C101.871 126.311 101.521 125.831 101.111 125.511C100.711 125.181 100.261 125.001 99.8707 125.051C99.4707 125.091 99.1607 125.281 98.9607 125.471C98.5607 125.891 98.7007 126.271 98.6507 126.261C98.6507 126.291 98.4207 125.881 98.8407 125.351C99.0407 125.111 99.3807 124.871 99.8407 124.801C100.311 124.721 100.851 124.911 101.311 125.261C101.771 125.601 102.161 126.101 102.561 126.621C102.961 127.141 103.371 127.711 103.791 128.331C104.631 129.571 105.511 130.991 106.351 132.591L105.881 132.661C106.131 131.151 106.401 129.521 106.671 127.831C107.401 123.131 108.001 118.871 108.451 115.781C108.671 114.321 108.851 113.091 109.001 112.131C109.141 111.271 109.231 110.791 109.271 110.801H109.261Z" fill="#060431"/>
<path d="M133.71 148.34C133.69 148.42 132.79 148.27 131.33 148.06C129.87 147.85 127.85 147.61 125.61 147.49C123.37 147.37 121.33 147.38 119.86 147.42C118.39 147.46 117.47 147.51 117.46 147.42C117.46 147.35 118.36 147.18 119.84 147.04C121.32 146.9 123.38 146.83 125.64 146.96C127.91 147.09 129.94 147.39 131.4 147.69C132.86 147.99 133.73 148.26 133.72 148.33L133.71 148.34Z" fill="#060431"/>
<path d="M134.67 219.771C134.67 219.771 134.3 219.641 133.68 219.321C133.06 219.001 132.18 218.511 131.1 217.881C128.95 216.621 126.05 214.751 122.99 212.491C119.93 210.221 117.3 207.991 115.47 206.301C114.55 205.461 113.83 204.761 113.34 204.261C112.85 203.761 112.6 203.471 112.62 203.451C112.64 203.421 112.95 203.661 113.48 204.111C114.09 204.641 114.84 205.281 115.71 206.031C117.6 207.641 120.25 209.821 123.29 212.081C126.33 214.331 129.19 216.241 131.28 217.581C132.25 218.201 133.08 218.731 133.76 219.161C134.35 219.531 134.66 219.761 134.65 219.791L134.67 219.771Z" fill="#060431"/>
<path d="M46.9602 116.54C46.9602 116.54 42.2802 117.39 37.8402 126.72C33.4002 136.05 21.9802 167.04 21.2402 169.12L44.5802 184.64L57.7602 145.58L46.9702 116.54H46.9602Z" fill="#F25C05"/>
<path d="M59.1398 200.7L59.3398 187.46L44.2698 182.36L47.1098 172.93L23.8898 162.01C23.8898 162.01 13.4998 189.2 13.5598 194.18C13.5798 196.03 17.7198 205.41 26.3698 206.24C31.9998 206.79 44.7298 207.53 53.2998 207.84C57.1798 207.98 60.1498 204.45 59.1398 200.7Z" fill="#F25C05"/>
<path d="M54.8802 152.081C55.0202 152.121 52.9802 159.011 50.3302 167.461C47.6802 175.921 45.4202 182.731 45.2802 182.691C45.1402 182.651 47.1802 175.761 49.8302 167.301C52.4802 158.851 54.7402 152.031 54.8802 152.071V152.081Z" fill="#060431"/>
<path d="M51.6094 184.83C51.6094 184.83 51.2494 184.78 50.6294 184.61C50.0094 184.43 49.1094 184.16 48.0094 183.82C46.8994 183.5 45.6394 182.96 44.1794 182.57C42.7294 182.16 41.0894 181.83 39.3594 181.68C35.8794 181.34 32.7294 181.92 30.5694 182.65C28.4094 183.4 27.1994 184.17 27.1494 184.08C27.1294 184.05 27.4194 183.84 27.9694 183.5C28.5194 183.16 29.3594 182.73 30.4494 182.3C32.6194 181.47 35.8594 180.82 39.4094 181.16C42.9694 181.44 46.0094 182.65 48.1394 183.47C49.2194 183.86 50.0994 184.18 50.6994 184.42C51.2994 184.66 51.6294 184.8 51.6194 184.84L51.6094 184.83Z" fill="#060431"/>
<path d="M36.7197 174.111C36.7397 174.051 37.4397 174.181 38.4997 174.651C39.5497 175.111 40.9297 175.971 42.1897 177.221C43.4397 178.481 44.2897 179.861 44.7497 180.921C45.2097 181.981 45.3397 182.681 45.2897 182.701C45.1397 182.771 44.2797 180.011 41.8297 177.591C39.4197 175.131 36.6597 174.261 36.7297 174.111H36.7197Z" fill="#060431"/>
<path d="M54.6601 139.101C54.5701 139.091 54.7401 137.841 54.6901 135.831C54.6401 133.831 54.2501 131.051 53.1801 128.181C52.1001 125.311 50.5601 122.971 49.2801 121.431C48.0001 119.881 47.0501 119.061 47.1101 118.991C47.1301 118.961 47.3901 119.151 47.8301 119.511C48.2801 119.861 48.8801 120.441 49.5601 121.191C50.2501 121.941 50.9901 122.911 51.7201 124.061C52.4301 125.211 53.1101 126.541 53.6701 128.001C54.2101 129.471 54.5701 130.921 54.8001 132.251C55.0001 133.591 55.0901 134.811 55.0601 135.831C55.0401 136.851 54.9701 137.681 54.8601 138.241C54.7701 138.801 54.7001 139.111 54.6601 139.101Z" fill="#060431"/>
<path d="M59.34 203.38C59.34 203.38 59.34 203.51 59.3 203.74C59.27 203.98 59.18 204.31 59.01 204.73C58.69 205.55 57.92 206.76 56.43 207.49C55.7 207.84 54.79 208.13 53.84 208.06C52.9 208.06 51.9 208.06 50.85 208.03C48.75 207.98 46.44 207.88 44.01 207.75C39.16 207.48 34.79 207.13 31.62 206.84C30.04 206.69 28.76 206.56 27.87 206.46C26.99 206.36 26.5 206.28 26.5 206.24C26.5 206.2 27 206.21 27.88 206.25C28.87 206.31 30.13 206.38 31.64 206.47C34.91 206.67 39.24 206.94 44.03 207.23C46.45 207.36 48.75 207.47 50.85 207.55C51.89 207.58 52.89 207.6 53.82 207.63C54.74 207.71 55.55 207.46 56.26 207.16C57.68 206.52 58.45 205.43 58.81 204.65C59 204.26 59.12 203.94 59.18 203.71C59.26 203.49 59.31 203.38 59.32 203.38H59.34Z" fill="#060431"/>
<path d="M62.4807 202.6L75.4907 203.08C76.7907 203.13 78.0107 201.94 78.5607 200.08L88.7507 164.38C89.3907 161.91 88.0307 159.92 85.8007 159.78L68.6007 158.7C65.8307 158.7 64.3507 159.89 63.8607 161.97L57.1607 190.23C55.7407 196.22 58.4207 202.45 62.4807 202.6Z" fill="#060431"/>
<path d="M51.3403 185.74L54.8003 178.42L60.4803 176.52L58.7403 183.52C60.9703 184.6 64.3303 185.15 66.2603 184.09C68.1903 183.02 75.7403 175.52 77.1603 176.24C78.5803 176.96 79.8603 178.68 78.5503 180.33C77.2503 181.98 70.1703 187.09 71.6303 188.6C73.0903 190.11 81.2503 183.49 83.6503 183.98C86.0503 184.48 87.5103 185.86 86.1703 186.88C84.8503 187.89 81.5503 191.19 80.9703 192.63C81.1103 194.43 81.9703 196.98 81.1803 197.43C80.0203 198.08 76.0003 199.47 75.1703 199.51C74.7403 199.53 71.7003 200.72 68.9003 201.85C65.7503 203.12 62.2603 203.2 59.0503 202.08L57.4203 201.51C54.8803 200.62 53.1903 198.21 53.2103 195.52L53.2703 190.11L51.3203 185.75L51.3403 185.74Z" fill="#FBCCB2"/>
<path d="M60.0801 184.061C60.0801 184.061 60.3101 183.461 60.6301 182.331C60.9601 181.101 61.3901 179.501 61.9201 177.571C62.4501 175.521 63.0701 173.131 63.7501 170.491C64.0901 169.151 64.4501 167.751 64.8101 166.311C65.2201 164.891 65.3801 163.241 66.3701 162.161C67.3901 161.091 69.0501 161.041 70.4801 161.111C71.9701 161.221 73.4101 161.331 74.7801 161.431C77.5001 161.621 79.9601 161.801 82.0701 161.951C84.0701 162.071 85.7201 162.171 86.9901 162.251C88.1501 162.311 88.8001 162.321 88.8001 162.281C88.8001 162.241 88.1701 162.151 87.0101 162.021C85.7501 161.891 84.1001 161.731 82.1001 161.531C79.9901 161.341 77.5301 161.121 74.8201 160.881C73.4401 160.771 72.0001 160.651 70.5101 160.521C69.7501 160.481 68.9601 160.471 68.1601 160.621C67.3701 160.771 66.5401 161.101 65.9301 161.741C65.3201 162.381 65.0201 163.181 64.8001 163.931C64.5901 164.691 64.4201 165.431 64.2401 166.151C63.8801 167.601 63.5401 169.001 63.2101 170.341C62.5701 172.991 61.9901 175.391 61.5001 177.451C61.0501 179.401 60.6801 181.021 60.4001 182.251C60.1501 183.391 60.0301 184.021 60.0701 184.031L60.0801 184.061Z" fill="#08313A"/>
<path d="M75.71 166.79C75.71 167.49 76.28 168.07 76.99 168.07C77.7 168.07 78.27 167.5 78.27 166.79C78.27 166.08 77.7 165.51 76.99 165.51C76.28 165.51 75.71 166.08 75.71 166.79Z" fill="white"/>
<path d="M202.464 113.299H261.797C265.876 113.299 269.214 116.636 269.214 120.715V165.215C269.214 169.295 265.876 172.632 261.797 172.632H202.464C198.384 172.632 195.047 169.295 195.047 165.215V120.715C195.047 116.636 198.384 113.299 202.464 113.299Z" stroke="#F25C05" stroke-width="4" stroke-linecap="round" stroke-linejoin="round"/>
<path d="M269.214 120.716L232.13 146.674L195.047 120.716" stroke="#F25C05" stroke-width="4" stroke-linecap="round" stroke-linejoin="round"/>
</g>
<defs>
<clipPath id="clip0_889_1441">
<rect width="461.26" height="452.67" fill="white"/>
</clipPath>
</defs>
</svg>
